<svg width="182" height="182" viewBox="0 0 182 182" fill="none" xmlns="http://www.w3.org/2000/svg">
<path d="M85.1803 182C83.9617 181.709 82.571 181.815 81.3259 181.695C43.5378 177.707 11.7496 149.976 2.59731 113.13C1.60393 109.128 0.769513 104.677 0.358916 100.662C0.226466 99.4167 0.332406 98.0387 0.05426 96.8066C0.186711 93.004 -0.117926 89.0822 0.05426 85.2796C0.438367 76.9193 2.63705 67.7242 5.49798 59.8408C22.5444 12.7128 74.6107 -11.6925 122.134 5.5184C168.942 22.4776 193.551 74.4019 176.677 121.994C164.902 155.17 132.16 180.357 96.6902 182H85.1803ZM73.6703 117.423V97.5618C79.6173 97.5353 88.3856 98.2507 92.3723 92.8582C95.1405 89.1087 95.3789 81.3313 92.4518 77.6347C89.5379 73.9514 84.412 73.8322 80.1206 73.6069H12.3324C7.73641 95.4551 12.3854 118.297 25.2331 136.422C55.3656 178.966 117.975 181.523 151.379 141.298C179.71 107.168 174.624 56.2502 140.24 28.4398C103.538 -1.23877 49.3524 7.46606 23.604 46.6444C23.2994 47.1082 20.4119 51.5865 20.6371 51.7852H81.167C99.7366 52.5272 111.352 61.3248 112.743 80.5098C114.24 101.166 104.134 116.667 82.5312 117.423C79.5776 117.529 76.6107 117.33 73.6571 117.423H73.6703Z" fill="url(#paint0_linear_219_2)"/>
<defs>
<linearGradient id="paint0_linear_219_2" x1="7.59959e-07" y1="91" x2="182" y2="91" gradientUnits="userSpaceOnUse">
<stop stop-color="#34318E"/>
<stop offset="1" stop-color="#633BBC"/>
</linearGradient>
</defs>
</svg>
