<svg width="677" height="182" viewBox="0 0 677 182" fill="none" xmlns="http://www.w3.org/2000/svg">
<path d="M85.1803 182C83.9617 181.709 82.571 181.815 81.3259 181.695C43.5378 177.707 11.7496 149.976 2.59731 113.13C1.60393 109.128 0.769513 104.677 0.358916 100.662C0.226466 99.4167 0.332406 98.0387 0.05426 96.8066C0.186711 93.004 -0.117926 89.0822 0.05426 85.2796C0.438367 76.9193 2.63705 67.7242 5.49798 59.8408C22.5444 12.7128 74.6107 -11.6925 122.134 5.5184C168.942 22.4776 193.551 74.4019 176.677 121.994C164.902 155.17 132.16 180.357 96.6902 182H85.1803ZM73.6703 117.423V97.5618C79.6173 97.5353 88.3856 98.2507 92.3723 92.8582C95.1405 89.1087 95.3789 81.3313 92.4518 77.6347C89.5379 73.9514 84.412 73.8322 80.1206 73.6069H12.3324C7.73641 95.4551 12.3854 118.297 25.2331 136.422C55.3656 178.966 117.975 181.523 151.379 141.298C179.71 107.168 174.624 56.2502 140.24 28.4398C103.538 -1.23877 49.3524 7.46606 23.604 46.6444C23.2994 47.1082 20.4119 51.5865 20.6371 51.7852H81.167C99.7366 52.5272 111.352 61.3248 112.743 80.5098C114.24 101.166 104.134 116.667 82.5312 117.423C79.5776 117.529 76.6107 117.33 73.6571 117.423H73.6703Z" fill="#F9F4FB"/>
<path d="M655.911 157.289C648.182 157.289 641.895 155.905 637.05 153.137C632.321 150.368 628.86 146.619 626.668 141.89C624.477 137.16 623.381 131.854 623.381 125.971V69.2166H659.89V120.953C659.89 123.606 660.64 125.682 662.14 127.182C663.755 128.566 665.658 129.258 667.85 129.258C670.157 129.258 672.522 128.566 674.944 127.182L676.847 151.233C674.31 153.194 671.022 154.694 666.985 155.732C662.947 156.77 659.256 157.289 655.911 157.289ZM641.722 59.6999C636.416 59.6999 631.859 58.0273 628.053 54.6821C624.246 51.2214 622.343 47.011 622.343 42.0508C622.343 38.5902 623.266 35.591 625.111 33.0532C626.957 30.4001 629.379 28.3237 632.378 26.8241C635.378 25.3245 638.492 24.5747 641.722 24.5747C645.298 24.5747 648.528 25.3822 651.412 26.9971C654.411 28.6121 656.776 30.7461 658.506 33.3993C660.352 36.0524 661.275 38.9363 661.275 42.0508C661.275 45.5114 660.294 48.5683 658.333 51.2214C656.487 53.8746 654.065 55.951 651.066 57.4506C648.182 58.9502 645.067 59.6999 641.722 59.6999Z" fill="#F9F4FB"/>
<path d="M544.952 155.905L514.672 69.2166H554.815L569.868 121.126L584.576 69.2166H616.241L586.998 155.905H544.952Z" fill="#F9F4FB"/>
<path d="M444.11 155.905V69.2166H480.101V90.8455C482.408 83.0014 485.984 77.2337 490.829 73.5424C495.789 69.8511 501.672 68.0054 508.478 68.0054L512.804 98.6319C510.035 98.2858 507.324 98.1128 504.671 98.1128C488.637 98.1128 480.62 104.688 480.62 117.838V155.905H444.11Z" fill="#F9F4FB"/>
<path d="M362.04 157.289C354.08 157.289 346.871 155.386 340.411 151.579C333.951 147.657 328.818 142.293 325.011 135.487C321.32 128.682 319.474 120.895 319.474 112.128C319.474 103.361 321.32 95.6903 325.011 89.1152C328.818 82.54 333.951 77.4068 340.411 73.7154C346.871 69.9088 354.08 68.0054 362.04 68.0054C367.692 68.0054 373.171 69.5627 378.478 72.6773C383.784 75.7918 387.879 80.925 390.763 88.077V69.2166H426.753V155.905H390.417V139.813C387.648 145.466 383.957 149.791 379.343 152.79C374.729 155.79 368.961 157.289 362.04 157.289ZM373.287 129.95C378.016 129.95 382.053 128.278 385.399 124.933C388.744 121.472 390.417 117.262 390.417 112.301C390.417 107.341 388.744 103.304 385.399 100.189C382.053 96.9592 378.016 95.3443 373.287 95.3443C368.326 95.3443 364.174 97.0169 360.828 100.362C357.483 103.707 355.81 107.802 355.81 112.647C355.81 117.492 357.483 121.587 360.828 124.933C364.174 128.278 368.326 129.95 373.287 129.95Z" fill="#F9F4FB"/>
<path d="M215 155.905V36.6869H255.316C274.926 36.6869 289.692 39.9168 299.612 46.3766C309.648 52.7211 314.666 62.1224 314.666 74.5806C314.666 83.2321 312.474 90.6148 308.091 96.7285C303.822 102.727 297.766 107.341 289.922 110.571C282.078 113.686 272.85 115.243 262.237 115.243H253.24V155.905H215ZM260.68 91.1916C266.794 91.1916 271.523 89.9227 274.869 87.3849C278.214 84.8471 279.887 81.0404 279.887 75.9649C279.887 71.2354 278.272 67.7171 275.042 65.41C271.812 62.9875 267.14 61.7763 261.026 61.7763H253.24V91.1916H260.68Z" fill="#F9F4FB"/>
</svg>
