<svg width="40" height="40" viewBox="0 0 40 40" fill="none" xmlns="http://www.w3.org/2000/svg">
<circle cx="20" cy="20" r="20" fill="#9BBE87"/>
<g clip-path="url(#clip0_57_50)">
<path d="M22.6459 18.3451L20.5001 17.3659L22.6459 16.3867L23.6251 14.2409L24.6042 16.3867L26.7501 17.3659L24.6042 18.3451L23.6251 20.4909L22.6459 18.3451ZM12.1667 22.5742L13.1459 20.4284L15.2917 19.4492L13.1459 18.4701L12.1667 16.3242L11.1876 18.4701L9.04175 19.4492L11.1876 20.4284L12.1667 22.5742ZM16.8542 17.3659L17.9897 14.8555L20.5001 13.7201L17.9897 12.5846L16.8542 10.0742L15.7188 12.5846L13.2084 13.7201L15.7188 14.8555L16.8542 17.3659ZM12.6876 29.3451L18.9376 23.0846L23.1042 27.2513L31.9584 17.293L30.4897 15.8242L23.1042 24.1263L18.9376 19.9596L11.1251 27.7826L12.6876 29.3451Z" fill="white"/>
</g>
<defs>
<clipPath id="clip0_57_50">
<rect width="25" height="25" fill="white" transform="translate(8 8)"/>
</clipPath>
</defs>
</svg>
