<svg width="40" height="40" viewBox="0 0 40 40" fill="none" xmlns="http://www.w3.org/2000/svg">
<circle cx="20" cy="20" r="20" fill="#F06E4B"/>
<g clip-path="url(#clip0_57_52)">
<path d="M27.0731 17.9961H21.1268V20.1868C21.1268 21.7399 19.8632 23.0035 18.3101 23.0035C16.757 23.0035 15.4934 21.7399 15.4934 20.1868V15.4298L12.9545 16.9555C12.1995 17.4054 11.7379 18.223 11.7379 19.0993V20.9497L8.60826 22.7571C8.00972 23.1013 7.80238 23.8681 8.15056 24.4666L11.2802 29.8887C11.6244 30.4872 12.3912 30.6907 12.9897 30.3464L17.0348 28.0109H22.3786C23.7596 28.0109 24.8823 26.8882 24.8823 25.5072H25.5083C26.2007 25.5072 26.7601 24.9478 26.7601 24.2554V21.7517H27.0731C27.5934 21.7517 28.012 21.3331 28.012 20.8128V18.935C28.012 18.4147 27.5934 17.9961 27.0731 17.9961ZM32.8512 16.533L29.7215 11.1109C29.3773 10.5124 28.6105 10.309 28.012 10.6532L23.9669 12.9887H19.9688C19.4994 12.9887 19.0417 13.1217 18.6426 13.3682L17.3321 14.1858C16.9644 14.4127 16.7453 14.8156 16.7453 15.2459V20.1868C16.7453 21.0514 17.4456 21.7517 18.3101 21.7517C19.1747 21.7517 19.8749 21.0514 19.8749 20.1868V16.7443H27.0731C28.2819 16.7443 29.2638 17.7262 29.2638 18.935V20.0499L32.3934 18.2426C32.992 17.8944 33.1954 17.1315 32.8512 16.533Z" fill="white"/>
</g>
<defs>
<clipPath id="clip0_57_52">
<rect width="25" height="25" fill="white" transform="translate(8 8)"/>
</clipPath>
</defs>
</svg>
