<svg width="40" height="40" viewBox="0 0 40 40" fill="none" xmlns="http://www.w3.org/2000/svg">
<circle cx="20" cy="20" r="20" fill="#9BD7DC"/>
<g clip-path="url(#clip0_57_51)">
<path d="M25.374 13.5372V13.5676C25.1433 13.5502 24.9127 13.5372 24.6777 13.5372H19.1073C18.3892 13.5372 17.6929 13.6285 17.0271 13.7983C17.0228 13.7112 17.0184 13.6242 17.0184 13.5372C17.0184 11.2307 18.8897 9.35938 21.1962 9.35938C23.5027 9.35938 25.374 11.2307 25.374 13.5372ZM24.6777 14.9297C24.83 14.9297 24.9823 14.9341 25.1303 14.9428C25.313 14.9559 25.4958 14.9733 25.6786 14.9994C26.4445 14.1072 27.5847 13.5372 28.8554 13.5372H29.3559C29.8085 13.5372 30.1392 13.9636 30.0304 14.4032L29.4299 16.8054C30.1175 17.4495 30.6789 18.2328 31.0618 19.1075H31.6406C32.4109 19.1075 33.0332 19.7298 33.0332 20.5001V24.6779C33.0332 25.4482 32.4109 26.0705 31.6406 26.0705H30.248C29.852 26.5971 29.382 27.0671 28.8554 27.4631V30.2483C28.8554 31.0185 28.2331 31.6409 27.4628 31.6409H26.0703C25.3 31.6409 24.6777 31.0185 24.6777 30.2483V28.8557H19.1073V30.2483C19.1073 31.0185 18.485 31.6409 17.7147 31.6409H16.3221C15.5518 31.6409 14.9295 31.0185 14.9295 30.2483V27.4631C13.4107 26.3229 12.375 24.5778 12.1791 22.589H10.9258C9.28952 22.589 7.96655 21.266 7.96655 19.6297C7.96655 17.9934 9.28952 16.6705 10.9258 16.6705H11.0999C11.6787 16.6705 12.1443 17.1361 12.1443 17.7149C12.1443 18.2937 11.6787 18.7594 11.0999 18.7594H10.9258C10.4471 18.7594 10.0554 19.151 10.0554 19.6297C10.0554 20.1084 10.4471 20.5001 10.9258 20.5001H12.2836C12.8102 17.8977 14.7946 15.8219 17.3448 15.156C17.9062 15.0081 18.498 14.9297 19.1073 14.9297H24.6777ZM27.4628 20.8483C27.4628 20.2714 26.9952 19.8038 26.4184 19.8038C25.8416 19.8038 25.374 20.2714 25.374 20.8483C25.374 21.4251 25.8416 21.8927 26.4184 21.8927C26.9952 21.8927 27.4628 21.4251 27.4628 20.8483Z" fill="white"/>
</g>
<defs>
<clipPath id="clip0_57_51">
<rect width="25" height="25" fill="white" transform="translate(8 8)"/>
</clipPath>
</defs>
</svg>
