<svg width="40" height="40" viewBox="0 0 40 40" fill="none" xmlns="http://www.w3.org/2000/svg">
<circle cx="20" cy="20" r="20" fill="#FF5A5F"/>
<g clip-path="url(#clip0_57_53)">
<path d="M20.4998 18C19.1248 18 17.9998 19.125 17.9998 20.5001C17.9998 21.8751 19.1248 23.0002 20.4998 23.0002C21.8749 23.0002 22.9999 21.8751 22.9999 20.5001C22.9999 19.125 21.8749 18 20.4998 18ZM28.0001 18C26.625 18 25.5 19.125 25.5 20.5001C25.5 21.8751 26.625 23.0002 28.0001 23.0002C29.3751 23.0002 30.5002 21.8751 30.5002 20.5001C30.5002 19.125 29.3751 18 28.0001 18ZM12.9996 18C11.6245 18 10.4995 19.125 10.4995 20.5001C10.4995 21.8751 11.6245 23.0002 12.9996 23.0002C14.3746 23.0002 15.4997 21.8751 15.4997 20.5001C15.4997 19.125 14.3746 18 12.9996 18Z" fill="white"/>
</g>
<defs>
<clipPath id="clip0_57_53">
<rect width="25" height="25" fill="white" transform="translate(8 8)"/>
</clipPath>
</defs>
</svg>
