<svg width="40" height="40" viewBox="0 0 40 40" fill="none" xmlns="http://www.w3.org/2000/svg">
<circle cx="20" cy="20" r="20" fill="#234678"/>
<g clip-path="url(#clip0_57_49)">
<path d="M18.2511 9.13309L15.4094 14.8949L9.05131 15.8219C7.91113 15.9873 7.45419 17.3929 8.28104 18.198L12.8809 22.6804L11.793 29.0124C11.5971 30.1569 12.8026 31.0142 13.8122 30.4789L19.5001 27.4892L25.188 30.4789C26.1976 31.0099 27.4031 30.1569 27.2072 29.0124L26.1193 22.6804L30.7192 18.198C31.546 17.3929 31.0891 15.9873 29.9489 15.8219L23.5909 14.8949L20.7491 9.13309C20.2399 8.10605 18.7646 8.093 18.2511 9.13309Z" fill="white"/>
</g>
<defs>
<clipPath id="clip0_57_49">
<rect width="25" height="25" fill="white" transform="translate(7 7)"/>
</clipPath>
</defs>
</svg>
