<svg width="40" height="40" viewBox="0 0 40 40" fill="none" xmlns="http://www.w3.org/2000/svg">
<rect width="40" height="40" rx="5" fill="#FEE101"/>
<path d="M20.8422 25.8999C20.8677 26.2257 20.8087 26.5531 20.5058 26.7273C19.8378 26.858 19.9685 24.8708 20.01 24.453C20.104 23.5159 20.8565 23.6611 20.8454 24.495L21.7653 24.4982C21.7446 24.2127 21.6569 23.803 21.4576 23.5966C20.9889 23.1127 19.6018 23.1449 19.2542 23.7788C19.0278 24.1934 19.0263 25.8063 19.0964 26.3112C19.3053 27.7984 22.0698 27.5467 21.7669 25.8983H20.8438L20.8422 25.8999Z" fill="#023882"/>
<path d="M23.9002 13.5885L20.6079 15.8579L21.9344 16.737L21.9918 16.9306L20.0977 18.1467L16.1263 15.4369L22.5451 10.7674L21.1596 9.97217L13.1289 15.4837L19.9606 20.0597L26.794 15.5289L23.9002 13.5885Z" fill="#023882"/>
<path d="M28.0902 23.3774H26.0128C25.9888 23.4452 26.1052 23.4887 26.1052 23.5178V27.1147C27.2245 27.0921 28.712 27.4922 28.8762 25.9469C28.9336 25.3969 28.9416 24.3065 28.6402 23.85C28.5685 23.742 28.1811 23.3791 28.0902 23.3791V23.3774ZM27.0284 26.5534V23.9371C27.867 23.8146 27.9084 24.2033 27.9563 24.9146C28.0041 25.6437 28.0695 26.805 27.0284 26.5534Z" fill="#023882"/>
<path d="M22.4431 23.5952C22.0429 24.0001 22.0652 25.6582 22.1322 26.2292C22.298 27.6357 24.7756 27.7067 24.9892 26.126C25.0594 25.6082 25.0498 24.2533 24.7995 23.8114C24.4185 23.1339 22.9373 23.0952 22.4415 23.5968L22.4431 23.5952ZM23.9641 26.3954C23.878 26.6938 23.4172 26.8373 23.202 26.547C22.9596 26.2212 22.9182 24.0082 23.3997 23.8598C23.6245 23.7904 23.8126 23.8307 23.9147 24.0533C23.9736 24.1824 24.0789 25.0147 24.0821 25.1985C24.0852 25.4227 24.0183 26.2131 23.9657 26.397L23.9641 26.3954Z" fill="#023882"/>
<path d="M17.7938 25.6195L16.8261 23.4694L15.6702 23.3774V27.2083L16.4083 27.1147V24.8727C16.622 24.8291 16.5566 24.8953 16.6172 24.992C16.8819 25.4195 17.2677 26.9034 17.5595 27.126L18.6245 27.1163V23.3791H17.7938V25.6211V25.6195Z" fill="#023882"/>
<path d="M14.465 17.335L13.0349 18.285V20.1077L15.8027 18.2866L14.465 17.335Z" fill="#023882"/>
<path d="M19.3132 10.4832L19.2558 10.2913C19.0326 10.2106 17.7874 9.47832 17.9293 9.27186L19.7357 8.146L23.7024 10.7622L23.5542 11.0832L17.282 15.3883L18.6356 16.2593L26.6998 10.6719L19.9127 6.18945L13.1272 10.8106L15.989 12.6785L19.3116 10.4816L19.3132 10.4832Z" fill="#023882"/>
<path d="M13.0937 23.3872L11.9761 27.1132C12.8546 27.1713 12.9789 27.2003 13.1718 26.3148L14.2034 26.3277L14.3867 27.1051L15.3927 27.1132L14.2719 23.3904L13.0937 23.3872ZM13.2691 25.7131C13.4126 25.3421 13.4333 24.9228 13.5433 24.5421C13.5832 24.4066 13.4907 24.3792 13.7298 24.405L14.0073 25.7131H13.2691Z" fill="#023882"/>
<path d="M11.1471 24.7325C12.1005 24.3422 12.0559 22.7244 11.0068 22.5373C10.2862 22.4082 9.22913 22.6324 8.46704 22.5373V27.1149C9.24189 27.0617 10.2607 27.2246 11.0004 27.1085C12.1818 26.9246 12.2711 25.0938 11.1471 24.7325ZM9.72816 23.2018C11.1376 23.005 10.9494 24.8519 9.61656 24.318C9.57192 24.0696 9.46988 23.2889 9.72816 23.2018ZM9.61656 26.3729L9.58626 25.1616C11.171 24.6922 11.2173 26.9246 9.61656 26.3729Z" fill="#023882"/>
<path d="M26.8864 8.14937V6.18799L24.1155 8.10259L25.4691 8.97199L26.8864 8.14937Z" fill="#023882"/>
<path d="M23.0058 29.9599C23.0552 29.4389 23.9544 29.6776 24.3004 29.6293V29.0679H22.4988C22.1991 29.0679 21.8148 29.7518 21.8117 30.0615C21.8037 31.168 23.7169 31.2148 23.6579 31.9132C23.6085 32.4794 22.3091 32.3342 21.9073 32.3294L20.9619 29.0808L19.8299 29.0631C19.6737 29.1067 19.0487 31.7729 18.8542 32.2036C18.8127 32.2955 18.7936 32.4229 18.666 32.4326L18.108 30.9874C19.0136 30.8874 18.9339 29.2389 18.1574 29.0696C17.5819 28.9437 16.6109 29.1615 15.9875 29.0696V32.9004L17.0031 32.8068V29.6309C17.6345 29.3954 18.1144 30.2503 17.6983 30.6616C17.499 30.8583 17.1498 30.618 17.1865 30.8922L18.0793 32.7923H19.5254L19.8618 32.01L20.8248 31.9616L21.1213 32.8149C22.1369 32.6278 25.0466 33.4633 24.6289 31.589C24.4248 30.6729 22.9341 30.6777 23.0026 29.9631L23.0058 29.9599ZM19.9606 31.4035C20.093 31.0309 20.0962 30.5938 20.2269 30.2261C20.2731 30.0938 20.1982 30.068 20.4214 30.097L20.6988 31.4051H19.9606V31.4035Z" fill="#023882"/>
<path d="M25.0386 32.8071L25.9617 32.899V29.0698H25.0386V32.8071Z" fill="#023882"/>
<path d="M27.4509 32.1924L27.5322 29.0713H26.5166V32.8069H28.6403V32.3392C28.4107 32.2956 27.5147 32.4634 27.4509 32.1924Z" fill="#023882"/>
<path d="M14.7871 30.4246C15.8584 30.1569 15.7612 28.4358 14.7424 28.2294C14.0537 28.0891 12.9424 28.3326 12.2026 28.2294V32.807C13.1592 32.6764 15.3945 33.3216 15.6129 31.9134C15.7341 31.136 15.5571 30.6392 14.7871 30.4246ZM13.3968 28.923C13.7236 28.8165 14.0855 28.8633 14.3327 29.1085C14.473 29.3085 14.4841 29.8569 14.288 30.0117L13.3091 30.0972L13.3952 28.923H13.3968ZM13.3107 32.1521V30.844L14.2338 30.8908C14.9337 31.736 14.2928 32.3618 13.3107 32.1521Z" fill="#023882"/>
<path d="M29.6431 23.5936C29.1106 24.071 29.1441 26.0985 29.5028 26.7147C29.9556 27.4937 31.5691 27.476 32.0027 26.6824C32.3136 26.1146 32.2961 24.3307 31.9437 23.7774C31.5356 23.1355 30.1533 23.1371 29.6415 23.5952L29.6431 23.5936ZM30.6906 26.7195C30.1166 26.6695 30.1932 24.8114 30.2649 24.363C30.3335 23.9436 30.7496 23.6387 31.0685 23.9597C31.3012 24.1952 31.4543 26.7856 30.6906 26.7195Z" fill="#023882"/>
</svg>
