<svg width="40" height="40" viewBox="0 0 40 40" fill="none" xmlns="http://www.w3.org/2000/svg">
<rect width="40" height="40" rx="5" fill="#CB092E"/>
<path d="M21.6719 17.5225C21.6024 17.5312 21.5265 17.5701 21.4633 17.6004C21.1516 17.7561 20.6207 18.0631 20.3385 18.2643C20.2521 18.3248 20.2079 18.3789 20.191 18.4913L20.1868 23.2053C20.1952 23.2789 20.2037 23.3697 20.2753 23.4064C20.4227 23.4821 20.9093 23.4216 21.0989 23.4194C21.3117 23.4173 21.5076 23.4497 21.7309 23.4194C21.8762 23.3978 21.9499 23.3178 21.971 23.1686L21.9752 17.8361C21.9542 17.6545 21.872 17.5009 21.6698 17.5225H21.6719ZM19.7992 18.6535C19.7739 18.6362 19.7044 18.6535 19.6728 18.6643C19.5401 18.7075 18.9166 19.0946 18.7839 19.1919C18.6743 19.2741 18.6132 19.3649 18.5859 19.5033L18.5816 23.188C18.6006 23.3027 18.6406 23.3956 18.7607 23.4151C18.9545 23.4475 19.2979 23.4194 19.5085 23.4194C19.5464 23.4194 19.5801 23.4367 19.6223 23.4367C19.7213 23.4346 19.8055 23.3913 19.8308 23.2875L19.835 18.7789C19.8392 18.7551 19.8097 18.6621 19.7971 18.6535H19.7992ZM10.737 27.7486C10.6317 27.6404 10.5011 27.6902 10.3831 27.6923C10.2399 27.6923 10.0482 27.675 9.91335 27.6923C9.83751 27.701 9.80381 27.7507 9.78906 27.8221V31.6993C9.80381 31.8377 9.88807 31.8528 10.0018 31.8744C10.2062 31.9133 10.5537 31.9069 10.7581 31.8723C10.8887 31.8485 10.9455 31.7836 10.9582 31.6495C11.0172 31.0073 10.9076 30.2721 10.9582 29.6255C10.9961 29.1217 11.3121 28.7151 11.8197 28.6741C12.0515 28.6546 12.2453 28.7692 12.2769 28.4578C12.2916 28.3173 12.2937 28.0145 12.279 27.8761C12.2747 27.8286 12.2516 27.7464 12.2115 27.7226C12.1462 27.6837 11.7334 27.688 11.6344 27.6945C11.3058 27.7204 11.1077 27.9237 10.8655 28.1227C10.7918 28.0167 10.8297 27.848 10.7349 27.7507L10.737 27.7486Z" fill="white"/>
<path d="M20.8567 6.87932C20.8482 6.93338 20.8819 6.91176 20.9156 6.91392C22.5355 7.03718 24.3303 7.99945 25.3541 9.29041C25.4931 9.46556 25.5773 9.6818 25.3878 9.85695C25.116 10.1056 24.7979 9.72505 24.581 9.56936C22.3691 7.99512 19.4453 8.14433 17.3914 9.9175C17.2208 10.0645 16.9301 10.3219 16.8101 10.5057C16.7995 10.523 16.7511 10.5922 16.7637 10.603C17.9202 10.523 19.0893 10.3543 20.25 10.4127C22.1543 10.5122 24.0923 10.7868 25.8343 11.6107C26.9213 12.1253 28.24 13.0487 28.5265 14.3223C29.0573 16.6858 26.2135 18.2471 24.4567 18.9369C24.2566 19.0147 23.7468 19.2288 23.5593 19.2288C23.3402 19.2288 23.1844 19.0234 23.2412 18.8028C23.2981 18.5823 23.9343 18.3509 24.1365 18.2471C25.1771 17.7022 26.9719 16.5063 26.3736 15.0748C25.7796 13.6498 23.4919 12.8432 22.1269 12.5189C20.6502 12.1664 19.123 12.0345 17.6084 12.0453C17.0312 12.0496 16.4604 12.0561 15.8874 12.1318C15.7736 12.1751 15.6999 12.4345 15.662 12.5513C14.9858 14.5299 15.5314 16.7853 16.8901 18.3076C17.0881 18.5304 17.4905 18.7617 17.2566 19.0947C17.1239 19.2872 16.9449 19.2483 16.77 19.151C15.7926 18.606 14.8152 17.3821 14.3433 16.3571C13.9199 15.4381 13.665 14.1515 13.7219 13.133C13.7324 12.9622 13.7851 12.7654 13.7893 12.601C13.7935 12.4367 13.703 12.4605 13.5871 12.48C13.1131 12.5664 12.6244 12.7611 12.1462 12.854C11.9419 12.8951 11.7418 12.9146 11.6702 12.6638C11.5733 12.3243 11.9419 12.1794 12.1842 12.0496C12.5928 11.8312 13.052 11.6453 13.4839 11.4788C13.6714 11.4052 14.0168 11.3469 14.1264 11.1782C14.2717 10.9533 14.396 10.5878 14.5371 10.3305C15.6409 8.33895 17.5431 7.10205 19.7802 6.9096C19.8118 6.90744 19.8476 6.92906 19.8392 6.875H20.8588L20.8567 6.87932Z" fill="white"/>
<path d="M5.47907 26.6456L5.58861 26.4251C5.70236 26.2434 6.25848 25.9342 6.46913 25.8693C6.58498 25.8347 6.65029 25.8174 6.66503 25.9688C6.71559 26.4748 6.6229 27.0695 6.66503 27.582C6.66714 27.6122 6.67346 27.6728 6.69031 27.6923C6.73244 27.7442 7.17902 27.6468 7.27592 27.6404C8.24491 27.5798 8.93374 28.0231 9.15071 29.0092C9.4688 30.4515 8.84527 31.7165 7.35807 31.9133C7.32648 31.9176 7.29067 31.8916 7.29909 31.9479H6.58077C6.5892 31.8938 6.55339 31.9176 6.52179 31.9133C6.27743 31.8852 5.86245 31.8376 5.63916 31.7532C5.56122 31.723 5.54647 31.6841 5.50856 31.6213C5.49381 31.1283 5.52752 30.6288 5.50856 30.1358C5.50856 30.1033 5.52541 30.0666 5.47485 30.0774V28.8946C5.52541 28.9032 5.50645 28.8686 5.50856 28.8362C5.52541 28.3388 5.52752 27.7701 5.50856 27.2727C5.50856 27.2403 5.52541 27.2036 5.47485 27.2144V26.6478L5.47907 26.6456ZM7.18113 28.6394C7.11582 28.6415 7.01261 28.661 6.9473 28.674C6.78932 28.7064 6.69031 28.7151 6.66924 28.9032V30.7867C6.69663 30.9705 7.00629 30.9445 7.14532 30.9337C8.27862 30.8407 8.36709 28.594 7.18323 28.6394H7.18113Z" fill="white"/>
<path d="M17.8633 31.9477C17.8717 31.8914 17.8359 31.9196 17.8043 31.9131C16.4856 31.7076 15.9042 30.6091 16.1465 29.3009C16.3698 28.0899 17.2208 27.6185 18.3562 27.6402C18.4679 27.6402 18.6448 27.7137 18.6659 27.5299C18.7122 27.1233 18.5332 26.6411 18.866 26.3276C18.9903 26.2108 19.5738 25.8519 19.7276 25.854C19.8202 25.854 19.8287 25.9189 19.8371 26.0011V31.5433C19.8181 31.6298 19.7886 31.686 19.7086 31.7206C19.4937 31.8158 19.0029 31.8806 18.7586 31.9131C18.727 31.9174 18.6912 31.8914 18.6996 31.9455H17.8633V31.9477ZM18.628 28.6738C18.5395 28.5895 18.1013 28.6132 17.9813 28.6435C17.0839 28.8662 17.0649 30.6913 17.9981 30.9097C18.1645 30.9486 18.6153 30.9876 18.6596 30.7648C18.6322 30.1334 18.7228 29.4198 18.668 28.7992C18.6659 28.7646 18.6532 28.6976 18.6301 28.6759L18.628 28.6738Z" fill="white"/>
<path d="M22.093 31.948C22.1014 31.8917 22.0656 31.9199 22.034 31.9134C21.0229 31.7555 20.4225 31.1089 20.3551 30.0515C20.2793 28.9011 20.7069 27.8459 21.9055 27.6469C23.3632 27.4048 24.0942 28.4449 23.9994 29.8461C23.991 29.9607 23.9783 30.1207 23.8477 30.1553L21.6991 30.1618C21.4442 30.1618 21.6001 30.4386 21.6843 30.5554C21.9793 30.9727 22.5143 30.9835 22.9651 30.9122C23.1357 30.8862 23.5339 30.7522 23.6708 30.7803C23.7277 30.7911 23.7403 30.8559 23.7466 30.9078C23.7614 31.0462 23.7614 31.4982 23.7171 31.6171C23.7066 31.6452 23.694 31.6733 23.6771 31.695C23.5697 31.829 23.0915 31.8896 22.9188 31.9134C22.8872 31.9177 22.8514 31.8917 22.8598 31.948H22.0909H22.093ZM22.2068 28.5552C22.0382 28.5724 21.8297 28.6935 21.718 28.8255C21.6549 28.9011 21.4463 29.2298 21.6338 29.2558C22.0066 29.2298 22.4195 29.2882 22.7882 29.2558C22.9588 29.2406 22.8998 29.1001 22.8535 28.9811C22.7502 28.7044 22.4996 28.527 22.2068 28.5573V28.5552Z" fill="white"/>
<path d="M32.4551 31.9477C32.4657 31.8936 32.4299 31.9195 32.3983 31.9131C31.1175 31.6774 30.7131 30.4534 30.9047 29.249C31.0985 28.0272 32.0802 27.4239 33.2451 27.6466C34.1066 27.811 34.5322 28.4013 34.6965 29.2468C34.7028 29.2793 34.6775 29.316 34.7302 29.3052V30.248C34.6775 30.2372 34.7028 30.274 34.6965 30.3064C34.5448 31.167 34.0561 31.753 33.1987 31.9109C33.1671 31.9174 33.1313 31.8914 33.1419 31.9455H32.4572L32.4551 31.9477ZM32.6869 28.6067C31.958 28.7084 31.9559 29.995 32.1644 30.5226C32.394 31.1043 33.165 31.0957 33.4115 30.5183C33.658 29.9409 33.6221 28.4748 32.6847 28.6067H32.6869Z" fill="white"/>
<path d="M13.6187 31.948C13.6292 31.894 13.5934 31.9199 13.5618 31.9134C12.8351 31.7837 12.2284 31.3317 12.2642 30.497C12.3105 29.4245 13.3575 29.1974 14.2127 29.2191C14.3539 29.2234 14.5203 29.3164 14.4845 29.0785C14.3939 28.499 13.545 28.6028 13.1447 28.6568C13.0268 28.672 12.9088 28.6958 12.7929 28.7217C12.6813 28.7022 12.6708 28.5811 12.6539 28.486C12.5549 27.9389 12.6602 27.727 13.21 27.6578C14.2801 27.5237 15.5272 27.7205 15.6262 29.0547L15.6178 31.5869C15.603 31.6215 15.5862 31.6561 15.5588 31.682C15.445 31.7902 14.7941 31.8896 14.613 31.9134C14.5814 31.9177 14.5456 31.8918 14.554 31.9459H13.6187V31.948ZM13.8314 30.0819C13.2206 30.1575 13.2522 30.8819 13.8293 30.9511C13.9578 30.9663 14.2317 30.9663 14.3623 30.9533C14.4444 30.9447 14.476 30.9295 14.4866 30.8409C14.495 30.7673 14.4929 30.1619 14.4781 30.1294C14.4718 30.1143 14.4465 30.097 14.4318 30.0905C14.3665 30.0624 13.9241 30.071 13.8314 30.0819Z" fill="white"/>
<path d="M25.3012 31.9481C25.3097 31.8919 25.2739 31.92 25.2423 31.9135C25.0464 31.8832 24.564 31.8075 24.4481 31.6475C24.3512 31.5135 24.3976 31.4399 24.3976 31.3059C24.3976 31.2021 24.3786 30.8755 24.4144 30.8085C24.4355 30.7718 24.4818 30.7501 24.5197 30.7501C24.6967 30.7458 25.019 30.8993 25.2254 30.9339C25.474 30.975 25.9522 31.0226 26.1165 30.7912C26.2555 30.5944 26.1291 30.4474 25.9606 30.3501C25.3644 30.0128 24.505 29.8873 24.4291 29.0051C24.3154 27.7033 25.7141 27.4806 26.6684 27.6838C26.7969 27.712 27.096 27.7682 27.1571 27.8871C27.2308 28.0341 27.2287 28.4645 27.1824 28.6245C27.1613 28.7002 27.1318 28.7391 27.0496 28.7369C26.6852 28.6418 26.2555 28.5337 25.8784 28.6093C25.6067 28.6634 25.5582 28.9121 25.7942 29.0656C26.4303 29.4765 27.2877 29.4397 27.3551 30.4842C27.4078 31.3275 26.938 31.7751 26.1754 31.9178C26.1438 31.9243 26.108 31.8984 26.1186 31.9524H25.2991L25.3012 31.9481Z" fill="white"/>
<path d="M29.3311 31.9481C29.3416 31.894 29.3058 31.92 29.2742 31.9135C28.5369 31.7772 27.9576 31.2561 27.8017 30.4906C27.4141 28.5877 28.4821 27.2059 30.4222 27.7162C30.5318 27.7444 30.8583 27.82 30.8688 27.9455L30.5107 28.7088C30.4159 28.7866 30.1463 28.6634 30.0199 28.6439C29.1647 28.5163 28.8803 29.1434 28.9287 29.9176C28.9666 30.5122 29.2847 30.9642 29.9061 30.9209C30.0473 30.9101 30.3717 30.7998 30.4791 30.8474C30.5318 30.869 30.6139 31.1112 30.6476 31.1739C30.6982 31.2669 30.9067 31.5394 30.8815 31.6302C30.8435 31.7729 30.26 31.8962 30.1231 31.9178C30.0915 31.9221 30.0557 31.8962 30.0641 31.9524H29.329L29.3311 31.9481Z" fill="white"/>
<path d="M5.479 27.2121C5.52956 27.2035 5.5106 27.2381 5.51271 27.2705C5.53167 27.7679 5.52956 28.3366 5.51271 28.8339C5.51271 28.8664 5.52956 28.9031 5.479 28.8923V27.21V27.2121Z" fill="white"/>
<path d="M5.479 30.0775C5.52956 30.0689 5.5106 30.1035 5.51271 30.1359C5.53167 30.6289 5.49796 31.1263 5.51271 31.6215C5.50639 31.6085 5.48954 31.5977 5.479 31.5869V30.0775Z" fill="white"/>
<path d="M21.6717 17.5225C21.8718 17.5009 21.954 17.6545 21.9771 17.8361L21.9729 23.1686C21.9519 23.3178 21.8781 23.4 21.7328 23.4194C21.5095 23.4519 21.3115 23.4194 21.1008 23.4194C20.9113 23.4194 20.4246 23.4821 20.2772 23.4064C20.2056 23.3697 20.1971 23.281 20.1887 23.2053L20.1929 18.4913C20.2098 18.381 20.254 18.327 20.3404 18.2643C20.6227 18.0631 21.1535 17.7539 21.4653 17.6004C21.5285 17.5701 21.6043 17.529 21.6738 17.5225H21.6717Z" fill="white"/>
<path d="M10.737 27.7486C10.8318 27.8459 10.796 28.0145 10.8676 28.1205C11.1077 27.9216 11.3079 27.7183 11.6365 27.6923C11.7334 27.6837 12.1462 27.6794 12.2137 27.7205C12.2537 27.7442 12.2769 27.8264 12.2811 27.874C12.2958 28.0124 12.2937 28.3151 12.279 28.4557C12.2474 28.7671 12.0536 28.6525 11.8218 28.6719C11.3142 28.7152 11.0003 29.1195 10.9603 29.6234C10.9097 30.2721 11.0193 31.0073 10.9603 31.6474C10.9476 31.7815 10.8908 31.8485 10.7602 31.8701C10.5537 31.9069 10.2083 31.9134 10.0039 31.8723C9.89018 31.8506 9.80591 31.8355 9.78906 31.6971V27.8199C9.80591 27.7486 9.83962 27.6988 9.91335 27.6902C10.0482 27.6729 10.2399 27.6923 10.3831 27.6902C10.5011 27.6902 10.6296 27.6383 10.737 27.7464V27.7486Z" fill="white"/>
<path d="M19.7992 18.6534C19.8097 18.6598 19.8392 18.755 19.8371 18.7788L19.8329 23.2874C19.8076 23.3912 19.7234 23.4323 19.6244 23.4366C19.5822 23.4366 19.5485 23.4193 19.5106 23.4193C19.2978 23.4193 18.9566 23.4496 18.7628 23.415C18.6406 23.3933 18.6027 23.3025 18.5837 23.1879L18.588 19.5032C18.6153 19.3648 18.6764 19.274 18.786 19.1918C18.9187 19.0923 19.5422 18.7053 19.6749 18.6642C19.7065 18.6534 19.776 18.6382 19.8013 18.6534H19.7992Z" fill="white"/>
</svg>
