<svg width="40" height="40" viewBox="0 0 40 40" fill="none" xmlns="http://www.w3.org/2000/svg">
<rect width="40" height="40" rx="5" fill="#185E9C"/>
<path d="M35.1422 23.875H32.9993L32.9827 23.8534L32.8236 22.9053H30.7421L30.2565 23.875H28.0688L31.3254 16.6221L33.7766 16.6346L35.1438 23.769V23.8732L35.1422 23.875ZM31.4746 21.1024H32.5618L32.2568 18.9655L31.4746 21.1024Z" fill="#F3F2F0"/>
<path d="M8.56573 16.4678C8.5591 16.5091 8.58562 16.4911 8.60716 16.4929C9.00988 16.5396 9.42089 16.6743 9.77058 16.8898L9.56839 19.0051C9.34797 18.7017 9.048 18.4951 8.68837 18.4503C7.71222 18.3299 6.80237 19.2009 6.74768 20.255C6.66315 21.8711 8.14809 22.4745 9.21539 21.4796C9.23031 21.4653 9.31648 21.3593 9.32974 21.3773L9.12092 23.4873C8.69831 23.7243 8.23261 23.8913 7.75863 23.9541C7.73542 23.9577 7.71056 23.938 7.71719 23.9793H6.97638C6.98301 23.938 6.9565 23.9577 6.93495 23.9541C5.60746 23.7674 4.73903 22.6971 4.57496 21.2803C4.57165 21.257 4.58988 21.2282 4.55176 21.2354V20.3286C4.58988 20.3358 4.57165 20.307 4.57496 20.2837C4.61308 20.0161 4.64291 19.7486 4.71252 19.4864C5.11192 17.9726 6.35324 16.6312 7.85641 16.4965C7.87961 16.4947 7.90447 16.5109 7.89784 16.4714H8.56739L8.56573 16.4678Z" fill="#F3F2F0"/>
<path d="M9.7126 23.875L12.9675 16.6221H15.4236L16.7859 23.8732H14.6414L14.4607 22.9035H12.4057L12.3659 22.9233L11.8919 23.8732H9.71094L9.7126 23.875ZM14.2055 21.1024L13.9122 18.9529L13.1167 21.1024H14.2039H14.2055Z" fill="#F3F2F0"/>
<path d="M20.9226 16.624L19.9713 23.8751H17.8152L18.7466 16.624H20.9226Z" fill="#F3F2F0"/>
<path d="M25.9773 20.4813C25.4701 21.1906 24.9597 21.8999 24.4476 22.6056L23.546 23.8483H20.7319L23.1698 20.4759L25.9375 20.4687C25.9574 20.4633 25.964 20.4741 25.9773 20.4831V20.4813Z" fill="#F4812A"/>
<path d="M25.0692 17.8792C25.0957 17.9295 25.1206 17.9995 25.1504 18.057C25.4902 18.6927 25.8332 19.3265 26.168 19.964C25.293 19.982 24.4146 19.9568 23.5395 19.9568L21.7463 16.5845H24.3582C24.5936 16.9867 24.804 17.4069 25.0245 17.8181C25.0377 17.8433 25.0626 17.8648 25.0692 17.8792Z" fill="#F3F2F0"/>
<path d="M25.0691 17.8794L25.9839 16.6367H28.798L26.39 19.9265C26.3452 19.9893 26.2391 19.9642 26.1695 19.966C25.8348 19.3285 25.4917 18.6946 25.152 18.0589C25.1221 18.0033 25.0973 17.9332 25.0707 17.8812L25.0691 17.8794Z" fill="#F4812A"/>
<path d="M25.9774 20.4814C25.9857 20.4868 25.994 20.4922 25.999 20.503L27.8419 23.8233H25.1173L24.4478 22.6058C24.9599 21.9001 25.4703 21.1926 25.9774 20.4814Z" fill="#F3F2F0"/>
</svg>
