<svg width="40" height="40" viewBox="0 0 40 40" fill="none" xmlns="http://www.w3.org/2000/svg">
<rect width="40" height="40" rx="5" fill="#FC6800"/>
<path d="M20.4557 24.2914V19.1087C20.4116 18.2706 20.0896 17.609 19.2717 17.4234C18.3607 17.2159 17.5733 17.5155 17.1313 18.3964C17.1166 18.4263 17.0578 18.5845 17.0493 18.591C17.0358 18.6001 17.0064 18.591 16.9893 18.5936V17.4701H15.4354V24.2914H17.0762V18.9984C17.4264 19.0101 17.7803 18.9841 18.1317 18.9984C18.3533 19.0075 18.6594 19.0036 18.7635 19.2565C18.7782 19.2916 18.8162 19.4304 18.8162 19.4628V24.2914H20.4569H20.4557ZM14.2392 17.4701H12.5984V24.2914H14.2392V17.4701Z" fill="white"/>
<path d="M28.1037 24.4224C28.111 24.3835 28.0853 24.3978 28.0608 24.3965C25.5813 24.2979 24.2221 21.6604 25.2433 19.3214C26.447 16.5646 30.6591 16.7241 31.455 19.7158C31.5872 20.2126 31.5921 20.7082 31.5823 21.2219H26.6735C26.7261 22.0198 27.1706 22.7255 27.942 22.8773C28.673 23.0213 29.6379 22.7061 29.8314 21.8615H31.5701C31.2199 23.3625 29.8914 24.3511 28.4551 24.3965C28.4318 24.3965 28.4061 24.3835 28.4122 24.4224H28.1037ZM29.8791 19.9661C29.7726 19.6159 29.5363 19.2799 29.2473 19.0749C28.7416 18.7168 28.0069 18.7052 27.4743 19.0061C27.1229 19.2046 26.8461 19.5666 26.7225 19.9674H29.8803L29.8791 19.9661Z" fill="white"/>
<path d="M4.02588 24.0049H7.39313L7.40537 23.9011L4.10057 23.1824C4.0969 23.0501 4.14098 22.9217 4.14955 22.7906H4.20342L7.47884 23.5353C7.47027 23.499 7.51802 23.4198 7.49108 23.3991L4.36873 21.9603C4.39077 21.9136 4.47893 21.5893 4.49484 21.5776C4.50464 21.5699 4.53035 21.5789 4.54382 21.5828C5.46339 21.9863 6.3756 22.4079 7.29394 22.8114C7.3417 22.8321 7.63434 22.9671 7.65148 22.9567C7.66863 22.9463 7.72618 22.862 7.6821 22.8451L4.95524 20.7019C4.94422 20.6942 4.93687 20.6838 4.93687 20.6695C4.93687 20.6436 5.11687 20.3478 5.14625 20.3024C5.15972 20.2816 5.20013 20.2012 5.22462 20.2051L7.98331 22.3807C7.99556 22.3482 8.06535 22.286 8.05188 22.2561L5.88827 19.3449L6.42826 18.8844L8.58084 21.6659C8.6139 21.6256 8.68125 21.614 8.65676 21.5478L7.41761 18.2189L7.42863 18.1826L8.17922 17.8634L9.35348 21.1677C9.36572 21.1781 9.45143 21.1508 9.45143 21.1352V17.4561H10.6722V24.2774H4.02588V24.0023V24.0049Z" fill="white"/>
<path d="M23.305 15.9149C23.3111 15.959 23.365 15.9655 23.3822 16.0096C23.3858 16.0213 23.4042 16.1095 23.4042 16.1173V17.4704H24.6935C24.6935 17.4704 24.7119 17.4885 24.7119 17.4898V18.9532C24.7119 18.9532 24.6948 18.9727 24.6935 18.9727H23.4042V22.7881H24.7119V24.2904C23.8389 24.2424 22.5655 24.5278 22.0255 23.5885C21.8528 23.2875 21.7953 22.9308 21.7647 22.5844V18.9714H20.9443C20.8402 18.9714 20.7802 18.7469 20.8769 18.6782L23.1826 15.9136H23.3062L23.305 15.9149Z" fill="white"/>
<path d="M35.602 17.3653V19.1037H34.0727V24.2917H32.3462V17.4704H33.9625V18.673L34.0384 18.6652C34.1302 18.2656 34.2661 17.8077 34.6053 17.5703C34.8992 17.3653 35.2628 17.3575 35.6032 17.3666L35.602 17.3653Z" fill="white"/>
<path d="M20.4556 24.2914H18.8148V19.4628C18.8148 19.4304 18.7768 19.2916 18.7621 19.2565C18.6581 19.0036 18.3507 19.0075 18.1303 18.9984C17.7801 18.9841 17.4263 19.0101 17.0748 18.9984V24.2914H15.4341V17.4701H16.9879V18.5936C17.0051 18.591 17.0344 18.6001 17.0479 18.591C17.0565 18.5858 17.1153 18.4263 17.13 18.3964C17.572 17.5155 18.3593 17.2159 19.2703 17.4234C20.0882 17.609 20.4103 18.2706 20.4543 19.1087V24.2914H20.4556Z" fill="white"/>
<path d="M14.2392 17.4702H12.5984V24.2915H14.2392V17.4702Z" fill="white"/>
</svg>
