<svg width="40" height="40" viewBox="0 0 40 40" fill="none" xmlns="http://www.w3.org/2000/svg">
<rect width="40" height="40" rx="5" fill="#1A5493"/>
<path d="M24.0032 25.9497H21.6845L21.6566 25.1176C20.8962 26.0887 19.7096 26.3417 18.5244 26.0653C17.4259 25.8095 16.6418 24.9994 16.5565 23.8688C16.3511 21.151 19.4706 20.5623 21.6021 20.7686C21.6188 20.5197 21.5573 20.2776 21.4329 20.0631C20.8319 19.0164 18.8263 19.4152 17.8647 19.6821C17.5698 19.7646 17.2847 19.8746 16.9912 19.964V18.0041C17.6355 17.7868 18.2938 17.6066 18.9731 17.5241C21.4287 17.2284 23.6901 17.7551 23.9739 20.5403C24.034 22.3407 23.9864 24.1466 24.0018 25.9484L24.0032 25.9497ZM21.63 22.2719C20.7117 22.2073 18.8627 22.2032 18.9563 23.5208C19.029 24.5468 20.4839 24.6294 21.1394 24.0833C21.3644 23.8963 21.63 23.4341 21.63 23.1439V22.2719Z" fill="#FFF212"/>
<path d="M30.2492 17.6548H32.7035V25.9498H30.3303L30.3024 25.0902C29.5826 26.0695 28.2981 26.3748 27.1381 26.0433C25.9207 25.6953 25.3016 24.6019 25.2009 23.4122V17.6548H27.6426C27.6454 17.6548 27.6832 17.6919 27.6832 17.6947V23.0092C27.6832 23.5277 28.122 24.0985 28.6587 24.17C29.7363 24.3131 30.2157 23.5346 30.2478 22.5815V17.6548H30.2492Z" fill="#FFF212"/>
<path d="M13.6383 15.1587V17.655H15.7935V19.5613H13.6383V22.9847C13.6761 23.29 13.6817 23.5912 13.8843 23.8416C14.2826 24.3367 15.1282 24.1813 15.6845 24.0974V25.9363C15.6104 25.9927 15.486 26.0051 15.3896 26.0229C13.3364 26.3833 11.3657 25.8868 11.184 23.5472V19.5613H9.96949C9.96949 19.5613 9.92896 19.5242 9.92896 19.5214V17.6963C9.92896 17.6963 9.96669 17.6564 9.96949 17.6564H11.1826V15.5892L13.6369 15.1601L13.6383 15.1587Z" fill="#FFF212"/>
<path d="M9.00078 17.6548H6.51855V25.9498H9.00078V17.6548Z" fill="#FFF212"/>
<path d="M31.1494 14.4336V16.5545H27.0305V15.1584L31.1494 14.4336Z" fill="#FFF212"/>
<path d="M6.69197 16.4118C5.97497 15.7062 6.27128 14.4092 7.25522 14.0984C8.49075 13.7092 9.61586 14.7435 9.13367 15.9744C8.77028 16.9015 7.37961 17.0885 6.69197 16.4118Z" fill="#FFF212"/>
</svg>
