<svg width="40" height="40" viewBox="0 0 40 40" fill="none" xmlns="http://www.w3.org/2000/svg">
<rect width="40" height="40" rx="5" fill="white"/>
<path d="M29.5062 13.2718C29.8766 8.27904 23.6779 6.39494 19.7133 6.62681C15.7555 6.85867 10.4136 9.19103 11.5724 14.0928C13.2603 21.2376 28.9464 20.846 29.5062 13.2718ZM29.0778 11.9047C27.7995 12.219 26.54 12.6157 25.3317 13.1396C24.2394 12.3272 23.27 11.2984 22.1948 10.4671C21.5719 9.98452 21.1247 9.59121 20.2901 9.93815C19.4248 10.2971 18.836 11.453 17.7728 11.0631C17.7062 11.0391 17.5731 11.0167 17.5953 10.9206C18.2848 10.0549 19.0955 9.08111 20.2423 8.8733C21.92 8.57102 22.8877 9.65648 24.4271 9.77155C25.4614 9.84884 26.4598 9.60152 27.3985 9.18932C28.2109 9.86258 28.9362 10.8227 29.0761 11.9047H29.0778ZM14.2741 8.64315C15.3681 7.8926 16.8802 7.39968 18.1824 7.17125C21.1315 6.65429 24.649 7.10427 27.0623 8.96432C26.3198 9.20306 25.5433 9.46583 24.7497 9.44522C22.816 9.39542 21.6879 7.84795 19.5136 8.72387C18.9948 8.93341 18.9419 9.10688 18.3309 9.24599C17.9469 9.33359 17.457 9.51221 17.0867 9.54656C16.1651 9.63071 14.967 9.09485 14.0881 8.83036C14.0881 8.72903 14.2041 8.69124 14.2741 8.64315ZM12.0127 11.2383C12.3404 10.3589 12.9599 9.69083 13.6477 9.0794C14.3048 9.24084 14.9499 9.53282 15.6189 9.69941C15.991 9.79216 16.5542 9.92956 16.9263 9.92269C17.3598 9.9141 17.8018 9.67709 18.2353 9.66163C18.0561 9.96047 17.3854 10.4671 17.2642 10.7454C17.0577 11.2211 17.8684 11.4719 18.2114 11.4822C18.9572 11.5045 19.4351 10.8673 20.0034 10.5049C20.8653 9.95704 21.1588 10.0996 21.9286 10.6784C22.857 11.3791 24.0926 12.4594 24.934 13.2718C25.0125 13.3474 25.2719 13.5827 25.2941 13.6583C25.4597 14.2199 24.9016 14.5084 24.4408 14.304L23.1027 13.0829L22.8604 13.0331C22.8365 13.1413 22.8843 13.1756 22.9372 13.2495C23.1898 13.5981 23.9629 14.1306 24.1285 14.4569C24.3043 14.8021 24.1285 15.1576 23.7649 15.2538C22.9935 15.4599 22.7085 14.2903 22.0088 14.2096C21.9866 14.3178 22.0327 14.3521 22.0856 14.426C22.2733 14.6836 22.9577 15.2676 22.9918 15.5389C23.0345 15.8738 22.531 16.0456 22.2579 15.9631C22.0804 15.9099 21.5667 15.2779 21.3671 15.1473C21.2834 15.0924 21.21 15.0477 21.1042 15.0649C20.9762 15.1937 21.8432 15.9408 21.8995 16.1091C21.5684 16.4011 21.0991 16.3135 20.7561 16.0851C20.9387 15.5836 20.7646 15.0013 20.2901 14.7334C20.1673 14.663 19.8003 14.5943 19.7833 14.5737C19.7594 14.5462 19.7167 14.1203 19.6245 13.9571C19.4897 13.7166 19.1023 13.5277 18.836 13.5157C18.708 13.5105 18.5681 13.5878 18.4811 13.5707C18.435 13.5621 18.2199 13.1396 17.7199 13.0915C17.3734 13.0571 17.1891 13.2478 17.0338 13.2461C16.957 13.2461 16.6532 12.9249 16.3443 12.9249C16.1122 12.9249 15.7862 13.1911 15.7145 13.1842C15.6667 13.1808 15.0899 12.8321 14.9533 12.772C13.9754 12.3392 12.9309 12.1108 11.9035 11.8274C11.7943 11.7415 11.9632 11.3602 12.0093 11.2366L12.0127 11.2383ZM16.8 14.2096C16.2385 14.7042 15.4295 13.9794 15.9483 13.4333C16.3016 13.0606 16.9092 13.3285 16.9075 13.8352C17.3461 13.277 18.1995 13.2048 18.2899 14.0498C18.4742 14.0155 18.5835 13.8352 18.7934 13.8334C19.1518 13.83 19.4419 14.0928 19.4607 14.4517C19.4709 14.6389 19.2576 15.0168 19.4743 15.0031C19.7065 14.9876 19.7457 14.833 20.0973 14.9859C20.8482 15.3105 20.5342 16.5316 19.604 16.3376C19.0955 16.2311 19.092 15.5475 19.0067 15.5492C18.6073 15.9872 17.8735 15.6643 17.969 15.0666C17.2522 15.3706 16.7163 14.9945 16.7983 14.2113L16.8 14.2096ZM11.8028 12.2293C13.0777 12.4904 14.4123 12.7943 15.5165 13.4917C15.3561 13.9949 15.5933 14.5187 16.0985 14.675C16.1958 14.7042 16.4689 14.7042 16.4842 14.7162C16.5235 14.7471 16.6412 15.0786 16.7471 15.1971C17.0747 15.563 17.329 15.4376 17.6687 15.5544C17.7625 15.587 17.9127 15.9305 18.2592 16.0301C18.4862 16.0937 18.6876 16.0404 18.836 16.0799C18.8787 16.0902 19.0016 16.3324 19.0647 16.3959C19.3446 16.6742 19.7679 16.7309 20.1382 16.633C20.3004 16.59 20.471 16.4045 20.5444 16.4028C20.64 16.4011 20.9353 16.578 21.0906 16.6038C21.3653 16.6484 21.7272 16.6398 21.9746 16.5024C22.0617 16.4543 22.1197 16.3324 22.205 16.3066C22.5515 16.2019 22.8143 16.3959 23.1778 16.0009C23.2717 15.8979 23.3314 15.6746 23.3451 15.6609C23.3639 15.6454 23.7154 15.6299 23.84 15.5956C24.224 15.4891 24.5739 15.1095 24.562 14.6888C25.2924 14.8828 25.9461 14.1065 25.5723 13.4058L29.1342 12.2808V13.1104C29.1342 14.0344 27.9907 15.4651 27.2978 16.025C23.7803 18.8674 17.0713 18.8709 13.5829 15.9717C12.8729 15.3809 11.8011 14.0206 11.8011 13.0571V12.2276L11.8028 12.2293Z" fill="#0A0080"/>
<path d="M21.2544 28.2948C20.4352 28.6898 20.2714 29.9522 20.4301 30.7542C20.6895 32.0647 22.089 32.8015 23.0738 31.7057C23.1949 32.5525 22.4406 33.382 21.6623 32.7225C21.5924 32.6624 21.5941 32.5611 21.5855 32.5611H20.4694C20.9489 34.2511 23.526 34.3266 23.9937 32.5507C24.1626 31.9118 24.1626 29.6155 23.8981 29.0299C23.4748 28.0938 22.101 27.8877 21.2544 28.2948ZM21.9132 31.3485C21.2135 31.1441 21.234 29.5812 21.6879 29.1621C21.9473 28.9217 22.4815 28.9062 22.7358 29.157C23.3656 29.7753 23.1676 31.716 21.9115 31.3502L21.9132 31.3485Z" fill="#0A0080"/>
<path d="M9.31794 22.438C9.20701 22.505 8.98685 22.7798 8.91175 22.766C8.16593 21.8901 6.73403 22.1134 6.28005 23.1799C6.23567 23.283 6.11279 23.6231 6.11279 23.7072V26.3024H6.99003L7.07024 26.2216V23.654C7.07024 23.3964 7.59761 23.1817 7.84166 23.1954C8.09084 23.2091 8.45095 23.4479 8.45095 23.7072V26.3024H9.35549V23.8687C9.35549 23.8103 9.49544 23.4788 9.54493 23.4187C9.7412 23.1851 10.173 23.125 10.4375 23.2607C10.557 23.3225 10.7908 23.6402 10.7908 23.7622V26.3041H11.6954V23.5492C11.6954 23.5046 11.5622 23.1456 11.5298 23.0752C11.156 22.2783 10.0603 21.9983 9.31965 22.4414L9.31794 22.438Z" fill="#0A0080"/>
<path d="M15.2948 28.2706C14.2503 27.7726 12.4941 28.3582 12.4941 29.6979V33.4437C12.6819 33.6602 13.5045 33.4472 13.5045 33.1758V31.7039C13.897 32.1264 14.2708 32.2947 14.8596 32.2381C16.5543 32.0732 16.7728 28.9748 15.2948 28.2706ZM14.4329 31.3862C13.2502 31.4497 13.2058 29.1363 14.2367 28.9868C15.544 28.7996 15.5901 31.3244 14.4329 31.3862Z" fill="#0A0080"/>
<path d="M29.6649 21.2446C29.6376 21.2738 29.5061 21.4971 29.5061 21.5142V22.7714C27.6663 21.1175 26.1457 23.6388 26.9444 25.4301C27.4923 26.6582 29.6802 26.7114 30.3134 25.5366C30.3475 25.4714 30.5165 25.0763 30.5165 25.0454V21.0059C30.2588 20.9921 29.8492 21.0488 29.6649 21.2446ZM28.7842 25.5486C27.4752 25.7152 27.5452 23.3228 28.4292 23.1579C29.8594 22.8917 29.8543 25.4112 28.7842 25.5486Z" fill="#0A0080"/>
<path d="M15.8955 25.2311H14.8596C14.8425 25.2311 14.6787 25.4062 14.5967 25.4475C13.9124 25.791 13.1631 25.3633 13.1324 24.5887H16.003C16.0491 23.3865 15.561 22.3577 14.2691 22.2409C12.646 22.0949 11.8712 23.5067 12.1886 24.9769C12.5709 26.7373 15.3084 26.9159 15.8972 25.2311H15.8955ZM14.9398 23.8948H13.1853C13.2689 22.7905 14.8562 22.818 14.9398 23.8948Z" fill="#0A0080"/>
<path d="M26.924 28.1247C26.68 28.092 26.1782 28.0989 25.9324 28.1333C23.9953 28.4149 23.9049 32.0457 26.1287 32.2415C29.1751 32.5094 28.9601 28.3926 26.924 28.1247ZM26.1423 31.3725C25.2992 31.1818 25.1917 28.9851 26.4103 28.9371C27.7637 28.8838 27.7688 31.74 26.1423 31.3725Z" fill="#0A0080"/>
<path d="M32.3649 22.2492C30.3186 22.5274 30.3357 26.1616 32.4554 26.3574C33.592 26.4622 34.4932 26.0534 34.756 24.8684C35.1247 23.2041 34.0563 22.0173 32.3649 22.2492ZM32.4861 25.4712C31.6328 25.1535 31.7232 23.2831 32.522 23.1028C32.65 23.0736 32.9043 23.077 33.0374 23.0959C34.1587 23.2591 33.9897 26.0311 32.4861 25.4712Z" fill="#0A0080"/>
<path d="M18.9828 28.1989C17.9537 27.9671 16.6805 28.2333 16.6941 29.5128H17.6516C17.6038 28.6936 19.2729 28.8052 18.9538 29.5128C18.8104 29.8306 17.5321 29.7997 17.102 30.0573C16.2862 30.5433 16.3613 31.9259 17.3427 32.2076C18.1585 32.4412 19.6382 32.2454 19.9232 31.2922C20.0358 30.9143 20.0392 29.5901 19.9914 29.1659C19.9266 28.5854 19.5067 28.3174 18.9845 28.2007L18.9828 28.1989ZM18.4469 31.4639C17.5031 31.816 17.2198 30.7632 17.981 30.5124C18.3018 30.4076 18.667 30.4145 18.9794 30.2617C19.0101 30.7803 18.9947 31.2595 18.4469 31.4639Z" fill="#0A0080"/>
<path d="M26.2908 25.552C26.4769 25.126 26.4717 23.7709 26.4222 23.278C26.3625 22.6906 26.0041 22.4485 25.4665 22.3145C24.4544 22.0603 23.1403 22.3008 23.1266 23.5717H24.0841C24.108 22.7937 25.7071 22.9122 25.3863 23.625C25.2668 23.8894 24.1404 23.9238 23.7905 24.0526C22.601 24.4854 22.7426 26.1909 23.9561 26.3506C24.6951 26.4468 25.9495 26.3352 26.2908 25.552ZM24.6951 25.6052C24.3128 25.6447 23.9612 25.5692 23.98 25.102C24.0039 24.4871 25.0057 24.5627 25.4119 24.3755C25.4665 24.9526 25.3692 25.5365 24.6951 25.6052Z" fill="#0A0080"/>
<path d="M22.6489 24.8565H21.613C21.4764 25.212 21.3348 25.5074 20.9064 25.54C19.7544 25.6293 19.7578 23.5718 20.449 23.2042C21.0088 22.9071 21.4286 23.1785 21.613 23.7332H22.6489C22.6404 22.3472 21.0481 21.9659 19.9711 22.4021C18.4044 23.0376 18.5051 26.1326 20.3415 26.349C21.4935 26.4846 22.4407 26.0793 22.6489 24.8565Z" fill="#0A0080"/>
<path d="M17.4913 23.9735C17.4913 23.4411 18.2764 23.1491 18.715 23.3054V22.2354C18.0204 22.2183 17.2234 22.4072 16.8103 23.0203C16.7301 23.1371 16.4827 23.7005 16.4827 23.8138V26.3025H17.493V23.9753L17.4913 23.9735Z" fill="#0A0080"/>
<path d="M13.5845 15.9734C17.0713 18.8725 23.7819 18.8691 27.2994 16.0266C27.9923 15.4667 29.1358 14.0361 29.1358 13.112V12.2825L25.574 13.4074C25.9477 14.1099 25.2941 14.8845 24.5636 14.6904C24.5755 15.1095 24.2274 15.4891 23.8417 15.5973C23.7171 15.6316 23.3655 15.6453 23.3467 15.6625C23.3331 15.6745 23.2734 15.8995 23.1795 16.0026C22.816 16.3976 22.5531 16.2035 22.2067 16.3083C22.1213 16.3341 22.0633 16.4543 21.9763 16.5041C21.7288 16.6415 21.3687 16.6501 21.0922 16.6054C20.9369 16.5814 20.6416 16.4028 20.5461 16.4045C20.4727 16.4045 20.3003 16.5917 20.1399 16.6346C19.7678 16.7325 19.3446 16.6758 19.0664 16.3976C19.0032 16.3341 18.8786 16.0919 18.8377 16.0816C18.6892 16.0421 18.4878 16.0953 18.2608 16.0318C17.9127 15.9339 17.7642 15.5887 17.6703 15.556C17.3307 15.4392 17.0764 15.5646 16.7487 15.1988C16.6412 15.0786 16.5251 14.7488 16.4859 14.7179C16.4705 14.7059 16.1974 14.7059 16.1002 14.6767C15.5933 14.5204 15.3578 13.9948 15.5182 13.4933C14.414 12.796 13.0793 12.492 11.8044 12.231V13.0605C11.8044 14.024 12.8762 15.3843 13.5862 15.9751L13.5845 15.9734Z" fill="#00BCFF"/>
<path d="M14.9585 12.7722C15.0951 12.8323 15.6719 13.1793 15.7197 13.1844C15.7914 13.1913 16.1174 12.9234 16.3495 12.9251C16.6584 12.9251 16.9622 13.2445 17.039 13.2462C17.1943 13.2497 17.3803 13.059 17.7251 13.0917C18.2251 13.1398 18.4402 13.5623 18.4862 13.5709C18.5733 13.588 18.7149 13.5107 18.8412 13.5159C19.1092 13.5279 19.4966 13.7168 19.6297 13.9573C19.7219 14.1205 19.7628 14.5464 19.7884 14.5739C19.8055 14.5945 20.1724 14.6632 20.2953 14.7336C20.7681 15.0015 20.9439 15.5838 20.7612 16.0853C21.1043 16.3137 21.5736 16.403 21.9047 16.1093C21.8484 15.9427 20.9814 15.1956 21.1094 15.0651C21.2152 15.0496 21.2886 15.0926 21.3722 15.1475C21.5719 15.2763 22.0856 15.9101 22.2631 15.9633C22.5362 16.0458 23.0397 15.874 22.997 15.5391C22.9629 15.2677 22.2785 14.6838 22.0908 14.4262C22.0378 14.3523 21.9901 14.318 22.014 14.2098C22.712 14.2905 22.9987 15.4601 23.7701 15.254C24.1337 15.1561 24.3094 14.8023 24.1337 14.4571C23.9664 14.1308 23.195 13.5966 22.9424 13.2497C22.8895 13.1758 22.8417 13.1415 22.8656 13.0333L23.1079 13.0831L24.446 14.3042C24.9068 14.5086 25.4666 14.2201 25.2993 13.6584C25.2771 13.5846 25.0177 13.3476 24.9392 13.272C24.0961 12.4613 22.8622 11.3793 21.9337 10.6786C21.1657 10.0998 20.8705 9.95723 20.0086 10.5051C19.4403 10.8675 18.9624 11.5047 18.2166 11.4824C17.8735 11.4721 17.0646 11.2213 17.2694 10.7456C17.3888 10.4673 18.0613 9.96067 18.2405 9.66182C17.8087 9.679 17.365 9.91601 16.9315 9.92288C16.5594 9.92975 15.9945 9.79064 15.6241 9.69961C14.9568 9.53473 14.31 9.24275 13.6529 9.07959C12.9651 9.69102 12.3456 10.3574 12.0179 11.2385C11.9718 11.3621 11.8029 11.7417 11.9121 11.8293C12.9395 12.1127 13.984 12.3394 14.9619 12.7739L14.9585 12.7722Z" fill="white"/>
<path d="M24.4271 9.77005C22.8877 9.65498 21.9217 8.56952 20.2423 8.8718C19.0954 9.0779 18.2847 10.0534 17.5952 10.9191C17.5731 11.0152 17.7062 11.0376 17.7727 11.0616C18.836 11.4515 19.4265 10.2956 20.2901 9.93665C21.1247 9.58972 21.5718 9.98302 22.1947 10.4656C23.27 11.2969 24.2394 12.3257 25.3316 13.1381C26.54 12.616 27.7995 12.2175 29.0778 11.9032C28.9361 10.8212 28.2125 9.86108 27.4001 9.18782C26.4615 9.60002 25.4613 9.84734 24.4288 9.77005H24.4271Z" fill="white"/>
<path d="M17.0868 9.54846C17.4554 9.51411 17.947 9.33549 18.331 9.2479C18.942 9.10878 18.9949 8.93531 19.5137 8.72578C21.6897 7.84985 22.8161 9.39732 24.7498 9.44713C25.5434 9.46774 26.3199 9.20324 27.0624 8.96623C24.6474 7.10617 21.1316 6.65619 18.1825 7.17315C16.882 7.40158 15.3682 7.8945 14.2742 8.64505C14.2042 8.69314 14.0864 8.73265 14.0882 8.83226C14.9671 9.09676 16.1652 9.63262 17.0868 9.54846Z" fill="#00BCFF"/>
<path d="M19.0069 15.5476C19.0922 15.5476 19.0956 16.2312 19.6042 16.3359C20.5343 16.53 20.8484 15.3089 20.0974 14.9843C19.7458 14.8331 19.7083 14.986 19.4745 15.0015C19.2577 15.0152 19.4711 14.6373 19.4608 14.4501C19.4421 14.0912 19.1502 13.8284 18.7935 13.8318C18.5836 13.8336 18.4744 14.0139 18.29 14.0482C18.1996 13.2032 17.348 13.2754 16.9076 13.8336C16.9093 13.3252 16.3035 13.0572 15.9485 13.4317C15.4296 13.9778 16.2386 14.7043 16.8001 14.208C16.7165 14.9911 17.2541 15.369 17.9709 15.0633C17.8753 15.661 18.6075 15.9839 19.0086 15.5459L19.0069 15.5476Z" fill="white"/>
</svg>
