<svg width="40" height="40" viewBox="0 0 40 40" fill="none" xmlns="http://www.w3.org/2000/svg">
<rect width="40" height="40" rx="5" fill="#8A04BD"/>
<path d="M20.0808 25.77V19.4578C20.0346 18.0872 19.9002 16.6677 19.0095 15.5963C17.7757 14.1153 15.4326 14.1153 14.1929 15.5793C15.5369 15.5708 16.7245 16.3919 17.1859 17.7265C17.3585 18.2293 17.4207 18.7258 17.4708 19.2584V25.7721H20.0828L20.0808 25.77ZM23.5132 14.7454L20.9353 14.8006L20.9293 21.5265C20.9895 23.173 21.4188 24.8619 22.8933 25.6766C24.0729 26.3301 25.7199 26.0776 26.6768 25.1037C26.7009 25.0783 26.8253 24.9722 26.7871 24.9383C25.8844 24.9616 24.9897 24.5691 24.3939 23.8562C23.8582 23.2175 23.6295 22.3625 23.5433 21.5244L23.5132 14.7454ZM29.704 23.4912C30.2055 22.7804 30.3781 22.0357 30.4102 21.1594L30.4041 14.8006L27.8423 14.7582L27.7942 14.8621V22.424C27.738 23.1157 27.6036 23.7904 27.2606 24.3908L26.8814 24.9404C27.9647 24.9531 29.056 24.4121 29.702 23.4955L29.704 23.4912ZM10.6019 25.77H13.1838V18.1254C13.256 17.1876 13.5148 16.2901 14.1287 15.5941C12.929 15.5326 11.621 16.3198 11.0373 17.4209C10.4796 18.4712 10.5959 19.479 10.6019 20.6226C10.61 22.3391 10.5939 24.0556 10.6019 25.77Z" fill="white"/>
</svg>
