<svg width="40" height="40" viewBox="0 0 40 40" fill="none" xmlns="http://www.w3.org/2000/svg">
<rect width="40" height="40" rx="5" fill="#60BE4E"/>
<path d="M6.74518 15.8372C9.92289 15.4452 12.7142 18.1516 12.1565 21.2769C11.4562 25.2023 6.40946 26.5918 3.77165 23.5377C1.39145 20.7775 3.08925 16.2883 6.74518 15.8372ZM11.263 20.2285C11.3617 18.796 10.6807 17.3676 9.41177 16.6346C6.69996 15.0693 3.3866 17.1287 3.63325 20.16C4.64864 18.2805 7.16312 17.6361 8.90613 18.9907C9.07057 19.1182 9.37614 19.5156 9.50769 19.5733C9.7242 19.6686 10.149 19.6592 10.4395 19.7626C10.7629 19.8781 10.9602 20.1117 11.263 20.2298V20.2285ZM8.94313 23.8129C7.30974 23.3255 6.92332 21.1118 8.28676 20.1036C8.543 19.9143 8.77458 19.8646 9.03357 19.7331C9.08016 19.7103 9.18841 19.6673 9.11853 19.6096C7.61258 17.9355 4.73359 18.3852 3.8662 20.458C2.66308 23.3309 6.01071 25.9219 8.58548 24.1861C8.66359 24.1337 9.01301 23.8894 8.94176 23.8129H8.94313ZM9.34736 19.972C7.02335 20.2956 7.35085 24.0438 10.086 23.5887C12.2716 23.2249 11.8838 19.6176 9.34736 19.972Z" fill="black"/>
<path d="M23.7119 22.1592L24.4861 18.5076C25.0397 18.5492 25.6687 18.4512 26.2127 18.5036C27.4925 18.6271 27.2733 20.0649 26.1743 20.23C26.2058 20.3455 26.3949 20.32 26.5238 20.4032C27.0527 20.7522 26.8252 21.5631 26.3511 21.8826C26.236 21.9605 25.7523 22.1578 25.6468 22.1578H23.7133L23.7119 22.1592ZM24.9781 20.0219C26.3525 20.2945 26.9115 18.7734 25.1959 18.995L24.9781 20.0219ZM25.7975 21.4463C26.4361 20.8127 25.4604 20.3267 24.8383 20.5066L24.6273 21.6772C25 21.6799 25.5111 21.7323 25.7989 21.4477L25.7975 21.4463Z" fill="black"/>
<path d="M20.3369 22.7795C20.6315 22.7795 20.8371 22.9151 21.144 22.9218C21.936 22.9379 22.3211 22.4573 22.3403 21.7458C21.9141 22.307 20.6685 22.3714 20.5507 21.5686C20.3136 19.9429 22.1813 18.9709 23.6119 19.4676C23.6654 19.5401 23.6325 19.6153 23.6256 19.6932C23.5681 20.2691 23.2392 21.5968 23.0446 22.1606C22.5828 23.4978 21.5798 23.5917 20.2944 23.2655L20.3369 22.7795ZM22.798 19.8852C21.9073 19.673 20.9851 20.8893 21.466 21.6398C22.4348 21.9673 22.6582 20.5497 22.798 19.8852Z" fill="black"/>
<path d="M13.8652 22.1591L14.6463 18.5143C15.6096 18.5707 17.3307 18.1142 17.2444 19.5775C17.1745 20.7723 15.9357 20.826 14.9861 20.8112L14.6751 22.092L13.8652 22.1591ZM15.3493 18.9962L15.093 20.23C15.1862 20.3696 16.0084 20.1937 16.1523 20.093C16.3879 19.9279 16.4852 19.5158 16.3619 19.2647C16.2482 19.0311 15.5891 18.9425 15.3493 18.9962Z" fill="black"/>
<path d="M35.1746 18.1625L34.6826 20.5051C35.0252 20.34 35.5267 19.564 35.809 19.4378C36.042 19.3345 36.4599 19.4378 36.7216 19.4029L35.4048 20.6756L36.2283 22.1577L35.3842 22.1241L34.647 20.779L34.3277 22.1537L33.5576 22.1563L34.3935 18.2001L35.1746 18.1611V18.1625Z" fill="black"/>
<path d="M19.8342 22.1497L19.0709 22.1591L19.1408 21.6087C18.9859 21.7322 18.8996 21.9362 18.716 22.053C18.2145 22.3725 17.395 22.2745 17.2594 21.6274C16.9168 20.0017 18.9695 18.9049 20.3768 19.4701L19.8342 22.1497ZM19.2655 19.8285C18.6996 19.8755 18.1665 20.4179 18.0925 20.9589C17.9541 21.9537 18.6749 21.9188 19.1079 21.1965C19.2559 20.9495 19.7465 19.7896 19.2655 19.8299V19.8285Z" fill="black"/>
<path d="M29.8303 22.1589H28.9862L29.0561 21.677C27.9544 22.8369 26.6773 22.0556 27.3556 20.5265C27.8119 19.4981 29.263 19.082 30.2935 19.4686C30.3853 19.5827 29.6809 21.7951 29.8303 22.1589ZM29.4781 19.8861C28.7875 19.6807 28.1325 20.3238 28.0174 20.9695C27.8489 21.9213 28.5655 21.9092 29.015 21.2595C29.2959 20.8527 29.2945 20.3318 29.4768 19.8861H29.4781Z" fill="black"/>
<path d="M32.1502 22.1575C32.2228 21.6219 32.6065 20.6969 32.5777 20.1935C32.5544 19.7894 32.0748 19.784 31.7994 19.9894C31.3869 20.2969 31.3006 21.6528 31.1622 22.1548L30.3921 22.1575L30.9498 19.431L31.6582 19.4014L31.6226 19.8136C31.935 19.3853 32.638 19.145 33.1012 19.4686C33.7 19.8861 33.0052 21.4715 32.9628 22.0904L32.1515 22.1562L32.1502 22.1575Z" fill="black"/>
<path d="M8.9431 23.8128C9.01436 23.8893 8.66493 24.1337 8.58682 24.186C6.01205 25.9218 2.66443 23.3309 3.86754 20.458C4.73494 18.3838 7.61529 17.9355 9.11987 19.6095C9.18975 19.6672 9.0815 19.7102 9.03491 19.733C8.77592 19.8633 8.54435 19.9143 8.2881 20.1036C6.92329 21.1118 7.30971 23.3268 8.94447 23.8128H8.9431Z" fill="#98DEDB"/>
<path d="M11.2629 20.2288C10.9601 20.112 10.7614 19.8771 10.4393 19.7616C10.1488 19.6583 9.72268 19.6663 9.50755 19.5723C9.376 19.5146 9.07043 19.1172 8.90599 18.9897C7.16298 17.6338 4.6485 18.2795 3.63311 20.159C3.38646 17.1277 6.69982 15.0683 9.41163 16.6337C10.6805 17.3667 11.3616 18.7951 11.2629 20.2275V20.2288Z" fill="#DAE641"/>
<path d="M9.34731 19.972C11.8837 19.619 12.2715 23.2262 10.0859 23.5887C7.3508 24.0438 7.02193 20.2956 9.34731 19.972Z" fill="#FADF00"/>
</svg>
