<svg width="40" height="40" viewBox="0 0 40 40" fill="none" xmlns="http://www.w3.org/2000/svg">
<rect width="40" height="40" rx="5" fill="#21C25E"/>
<path d="M3.87472 17.5327H5.41245V20.1008H6.91735C7.81686 20.0601 8.3066 19.397 8.1424 18.4611C7.91538 17.162 6.34052 17.5734 5.45672 17.5071C5.44387 17.5101 5.41103 17.4965 5.41103 17.486V16.1326C6.48187 16.1748 7.61269 15.9563 8.58359 16.538C9.49167 17.0821 9.78437 18.1536 9.65586 19.2056C9.46882 20.7428 8.37799 21.4194 6.99588 21.4767C6.47331 21.4978 5.93503 21.4586 5.41103 21.4767V23.5444H3.87329V17.5327H3.87472Z" fill="white"/>
<path d="M32.2078 25.692L33.0174 23.5685L33.0216 23.5233C32.3634 21.6892 31.631 19.8837 30.9756 18.0481C30.9542 17.9893 30.9271 17.926 30.9199 17.8643H32.4905L33.8126 21.3757L35.1419 17.8673H36.7439V17.8929L33.8255 25.692H32.2078Z" fill="white"/>
<path d="M13.7352 14.5063V17.7812H10.6326V14.5063H13.7352ZM13.2354 15.0338H11.1708V17.2266H13.2155C13.2155 17.2266 13.2354 17.207 13.2354 17.2055V15.0338Z" fill="white"/>
<path d="M20.8341 21.4734V23.5411H19.3149C19.3149 23.5411 19.2949 23.5215 19.2949 23.52V17.5324H20.8327V20.1005C21.3024 20.0809 21.7907 20.1261 22.259 20.1005C22.6788 20.0764 23.1228 19.9302 23.3541 19.5353C23.5854 19.1405 23.6012 18.4834 23.367 18.069C22.8801 17.2099 21.6494 17.6003 20.8769 17.5053C20.8641 17.5038 20.8312 17.4993 20.8312 17.4842V16.1309H22.5217C23.7496 16.2032 24.8019 16.8512 25.009 18.2091C25.1575 19.1887 24.919 20.2798 24.1437 20.8962C23.1928 21.6528 21.9492 21.4418 20.8312 21.4734H20.8341Z" fill="white"/>
<path d="M30.5644 23.4853H29.0523V22.8749C28.4898 23.5139 27.6617 23.7385 26.8564 23.5757C25.777 23.3587 25.2687 22.3173 25.5985 21.2337C26.1525 19.8126 27.8701 20.2195 29.0266 20.1547V19.9392C29.0266 19.4192 28.5612 19.1374 28.1243 19.1012C27.4875 19.0485 26.8678 19.255 26.3224 19.5835L26.2924 19.579C26.1596 19.2489 25.9997 18.9264 25.8698 18.5949C25.8584 18.5662 25.8212 18.4848 25.8341 18.4622C25.8512 18.4351 26.3267 18.2286 26.3952 18.2C27.9201 17.5761 30.4344 17.5233 30.5672 19.799V23.4838L30.5644 23.4853ZM29.1566 21.1267C28.7611 21.1403 28.3613 21.1102 27.9658 21.1267C27.616 21.1418 27.1248 21.19 27.0691 21.6512C26.9406 22.7212 28.3413 22.676 28.8867 22.0988C28.9467 22.0355 29.1566 21.7235 29.1566 21.6467V21.1267Z" fill="white"/>
<path d="M18.3354 19.112L17.3174 19.8641C17.2988 19.8641 17.1546 19.6877 17.1203 19.6561C16.742 19.2959 16.1323 19.1572 15.6497 19.3396C14.4132 19.8098 14.5732 22.206 16.001 22.307C16.5364 22.3447 17.0475 22.1216 17.3431 21.6424L18.3868 22.3778C18.4011 22.4035 18.354 22.4728 18.3383 22.4969C17.563 23.7779 15.5583 23.9799 14.4132 23.1781C12.8527 22.0855 12.9069 19.2416 14.5489 18.2605C15.4355 17.7315 16.7648 17.7692 17.6244 18.3449C17.8371 18.4866 18.1969 18.8121 18.3154 19.0457C18.324 19.0638 18.3454 19.0924 18.334 19.112H18.3354Z" fill="white"/>
<path d="M12.1703 18.8091H10.6326V23.5413H12.1703V18.8091Z" fill="white"/>
<path d="M12.7084 15.6035H11.6704V16.6856H12.7084V15.6035Z" fill="white"/>
</svg>
