<svg width="40" height="40" viewBox="0 0 40 40" fill="none" xmlns="http://www.w3.org/2000/svg">
<rect width="40" height="40" rx="5" fill="#EE0000"/>
<path d="M11.9146 18.8783C12.0267 18.9007 11.9736 18.8192 11.9893 18.7539C12.3965 17.1109 14.1945 16.0244 15.6305 15.4862C15.9531 15.366 16.3072 15.2355 16.6455 15.1927C16.673 15.8165 16.7852 16.4443 17.0429 17.0131C17.9222 18.9659 19.5608 20.9331 20.1883 22.9695C20.1981 23.0022 20.1962 23.0756 20.2394 23.0266C20.9378 21.9258 20.985 20.5009 20.4362 19.3206C19.3739 17.0273 16.6081 14.1959 18.2408 11.556C18.2703 11.5091 18.2979 11.45 18.3549 11.4337C18.4061 11.7334 18.5084 12.031 18.6343 12.3062C19.5175 14.253 20.8768 16.1854 21.8486 18.1179C22.0413 18.5012 22.2321 18.8926 22.3049 19.3227C23.0918 18.2056 23.078 16.7155 22.4879 15.5005C21.8466 14.1775 20.9496 12.9035 20.2926 11.5825C19.6808 10.3513 19.6493 8.85298 20.4539 7.71143C20.5266 8.14155 20.7175 8.53294 20.9102 8.91618C21.7246 10.5347 22.8872 12.188 23.615 13.8167C23.8137 14.2591 23.9239 14.7463 23.9554 15.2335C26.1684 15.7757 29.6836 17.696 28.3912 20.6008C27.3388 22.9716 23.44 24.0051 21.1443 24.0785C21.0755 24.0805 21.0007 24.0418 21.0224 24.1519H19.5647C19.5844 24.0398 19.5096 24.0805 19.4428 24.0785C16.9229 23.999 12.8352 22.8921 11.9991 20.0667C11.9814 20.0035 12.0247 19.9261 11.9185 19.9485V18.8803L11.9146 18.8783Z" fill="white"/>
<path d="M34.8866 27.3015V27.6746C34.8413 27.6664 34.861 27.699 34.859 27.7276C34.8512 27.7948 34.8374 27.8601 34.8295 27.9273C34.4853 27.8906 34.1391 27.8866 33.7948 27.9273V30.7425H33.0906V27.4585C33.5115 27.2852 33.9837 27.2526 34.4341 27.2567L34.8866 27.3015Z" fill="white"/>
<path d="M28.9085 26.1415V30.7424H28.2613L28.2318 30.3408C28.0528 30.5895 27.8246 30.7791 27.5158 30.8137C26.2234 30.9564 25.7473 29.7231 25.9539 28.5836C26.1663 27.4074 27.1971 27.1261 28.2181 27.3034V26.2169C28.4403 26.1456 28.6764 26.1374 28.9085 26.1415ZM28.2181 27.9578C27.7676 27.8742 27.2089 27.811 26.8824 28.2187C26.607 28.5612 26.5873 29.1992 26.7034 29.611C26.9119 30.3591 27.6751 30.3938 28.2161 29.9942V27.9578H28.2181Z" fill="white"/>
<path d="M8.88903 26.2759C8.89099 26.4981 8.83395 26.7162 8.77493 26.9282C8.65494 26.8976 8.53888 26.8569 8.41888 26.8283C7.9389 26.7182 6.85698 26.5776 6.9219 27.3828C6.96321 27.8985 7.76186 28.0922 8.13955 28.2797C8.61166 28.5162 9.0523 28.8444 9.09361 29.4355C9.1959 30.891 7.52187 31.0256 6.51863 30.7341C6.39864 30.6994 6.28061 30.6505 6.16455 30.6016C6.16455 30.3733 6.21176 30.149 6.27864 29.935C6.42815 29.9757 6.56781 30.043 6.71731 30.0817C7.14221 30.1918 8.23004 30.3243 8.3579 29.7148C8.49953 29.038 7.61826 28.8158 7.17369 28.612C6.59339 28.345 6.16455 27.9474 6.20586 27.2319C6.28455 25.8886 7.99201 25.9497 8.89099 26.2738L8.88903 26.2759Z" fill="white"/>
<path d="M32.4296 29.3421H30.2028C30.25 29.8436 30.5765 30.1554 31.0565 30.1921C31.4972 30.2248 31.9437 30.1432 32.343 29.9536C32.3647 29.9781 32.2683 30.5428 32.2329 30.61C31.6329 30.8608 30.7536 30.9117 30.1831 30.5611C29.3864 30.0719 29.292 28.6898 29.7307 27.9233C30.1044 27.2689 30.9818 27.114 31.6349 27.3586C32.4453 27.6624 32.5358 28.5675 32.4276 29.3441L32.4296 29.3421ZM31.7686 28.7326C31.7745 28.2862 31.5621 27.9029 31.1018 27.8683C30.7201 27.8397 30.3995 27.9885 30.2638 28.3718C30.2362 28.4472 30.189 28.6245 30.191 28.7C30.191 28.7142 30.2008 28.7326 30.2107 28.7326H31.7706H31.7686Z" fill="white"/>
<path d="M12.5125 30.7426H11.8516L11.8378 30.3696C11.8181 30.3472 11.7001 30.5204 11.6804 30.5408C11.2673 30.9628 10.4785 30.8833 10.0556 30.5102C9.50086 30.021 9.41628 28.9956 9.63463 28.3168C9.99264 27.2058 11.1592 27.1467 12.1132 27.3363C12.247 27.3628 12.3925 27.3934 12.5125 27.4586V30.7426ZM11.8083 27.9275C11.3165 27.8582 10.7087 27.8459 10.4136 28.3372C10.1677 28.749 10.1717 29.5766 10.4726 29.9598C10.7952 30.3737 11.4405 30.2962 11.8083 29.9904V27.9275Z" fill="white"/>
<path d="M21.7954 30.7423H21.1345C21.1286 30.6404 21.1306 30.5222 21.1207 30.4223C21.1207 30.408 21.1128 30.3713 21.0991 30.3713C21.0892 30.3713 20.985 30.5161 20.9614 30.5405C20.5384 30.9666 19.7595 30.885 19.3306 30.5059C18.6677 29.9147 18.6382 28.4613 19.2008 27.7947C19.7103 27.1933 20.6034 27.1974 21.3096 27.3238C21.4709 27.3523 21.6499 27.3911 21.7954 27.4604V30.7444V30.7423ZM21.0774 27.9272C20.5739 27.8599 19.9739 27.8395 19.6768 28.3451C19.4447 28.7405 19.4467 29.4785 19.6808 29.8719C19.9778 30.3734 20.6781 30.3224 21.0774 29.9881V27.9251V27.9272Z" fill="white"/>
<path d="M25.3737 30.7423H24.6557V28.4572C24.6557 28.4307 24.6242 28.3104 24.6124 28.2778C24.4471 27.7763 23.6406 27.8966 23.2472 27.9435V30.7423H22.543V27.4583C22.602 27.4216 22.6866 27.4114 22.7554 27.3951C23.6741 27.1811 25.2989 27.0282 25.3737 28.396V30.7403V30.7423Z" fill="white"/>
<path d="M16.0906 30.7423H15.4001V28.6345C15.3785 28.4449 15.3746 28.2472 15.2428 28.0984C14.989 27.813 14.3163 27.8986 13.9779 27.9414V30.7402H13.2737V27.4562C13.3327 27.4195 13.4173 27.4093 13.4861 27.393C14.393 27.181 16.0041 27.0241 16.0906 28.3634V30.7382V30.7423Z" fill="white"/>
<path d="M17.4992 26.1415V27.3768H18.6047L18.5476 28.0026H17.4992V29.7516C17.4992 29.8209 17.5719 29.9901 17.6172 30.0472C17.8139 30.2939 18.2939 30.2144 18.5555 30.1308C18.585 30.1247 18.5791 30.1451 18.5771 30.1695C18.5732 30.2388 18.5162 30.7118 18.4906 30.7362C17.987 30.9299 17.2041 30.9013 16.9267 30.3469C16.8323 30.1593 16.8146 29.9616 16.7949 29.7537V26.2556C17.0152 26.1618 17.2611 26.1333 17.4992 26.1415Z" fill="white"/>
</svg>
