<svg width="40" height="40" viewBox="0 0 40 40" fill="none" xmlns="http://www.w3.org/2000/svg">
<circle cx="20" cy="20" r="20" fill="#3C5037"/>
<g clip-path="url(#clip0_57_42)">
<path d="M30.6515 11.5573C28.4633 11.6815 24.1139 12.1336 21.4289 13.7772C21.2436 13.8906 21.1386 14.0922 21.1386 14.3031V28.8331C21.1386 29.2943 21.6429 29.5858 22.0682 29.3718C24.8307 27.9814 28.8259 27.602 30.8013 27.4982C31.4757 27.4626 32.0001 26.922 32.0001 26.2739V12.7833C32.0005 12.0761 31.3871 11.5158 30.6515 11.5573ZM19.5708 13.7772C16.8862 12.1336 12.5368 11.6819 10.3485 11.5573C9.61299 11.5158 8.99963 12.0761 8.99963 12.7833V26.2743C8.99963 26.9228 9.52394 27.4634 10.1984 27.4986C12.1746 27.6024 16.1718 27.9822 18.9343 29.3734C19.3584 29.587 19.8611 29.2959 19.8611 28.8359V14.2959C19.8611 14.0846 19.7565 13.891 19.5708 13.7772Z" fill="white"/>
</g>
<defs>
<clipPath id="clip0_57_42">
<rect width="25" height="25" fill="white" transform="translate(8 8)"/>
</clipPath>
</defs>
</svg>
