<svg width="40" height="40" viewBox="0 0 40 40" fill="none" xmlns="http://www.w3.org/2000/svg">
<circle cx="20" cy="20" r="20" fill="#A5236E"/>
<g clip-path="url(#clip0_57_38)">
<path d="M20.5004 11.7354C20.1836 11.7354 19.8706 11.7901 19.5733 11.8957L8.60003 15.8586C8.22838 15.9956 7.98193 16.3476 7.98193 16.7428C7.98193 17.1379 8.22838 17.49 8.60003 17.6269L10.8651 18.4445C10.2235 19.4538 9.8597 20.647 9.8597 21.9027V23.002C9.8597 24.113 9.4372 25.2593 8.98732 26.1629C8.73304 26.6715 8.44355 27.1722 8.10711 27.6339C7.98193 27.8021 7.94672 28.0212 8.01713 28.2207C8.08755 28.4202 8.25186 28.5688 8.45528 28.6197L10.959 29.2456C11.1233 29.2887 11.2993 29.2574 11.4441 29.1674C11.5888 29.0774 11.6905 28.9288 11.7218 28.7605C12.0583 27.0862 11.89 25.584 11.6397 24.5082C11.5145 23.9526 11.3463 23.3854 11.1116 22.8651V21.9027C11.1116 20.7213 11.5106 19.6064 12.203 18.7144C12.7077 18.1081 13.361 17.6191 14.1277 17.3178L20.2696 14.9041C20.5904 14.7789 20.9542 14.9354 21.0794 15.2562C21.2046 15.577 21.0481 15.9408 20.7273 16.066L14.5854 18.4797C14.1004 18.6714 13.6739 18.9648 13.3258 19.3247L19.5694 21.578C19.8667 21.6837 20.1797 21.7384 20.4965 21.7384C20.8134 21.7384 21.1264 21.6837 21.4237 21.578L32.4009 17.6269C32.7725 17.4939 33.019 17.1379 33.019 16.7428C33.019 16.3476 32.7725 15.9956 32.4009 15.8586L21.4276 11.8957C21.1303 11.7901 20.8173 11.7354 20.5004 11.7354ZM12.9893 26.4446C12.9893 27.8256 16.3537 29.2613 20.5004 29.2613C24.6472 29.2613 28.0116 27.8256 28.0116 26.4446L27.413 20.7565L21.8501 22.7673C21.4159 22.9238 20.9581 23.002 20.5004 23.002C20.0427 23.002 19.5811 22.9238 19.1508 22.7673L13.5879 20.7565L12.9893 26.4446Z" fill="white"/>
</g>
<defs>
<clipPath id="clip0_57_38">
<rect width="25" height="25" fill="white" transform="translate(8 8)"/>
</clipPath>
</defs>
</svg>
