<svg width="40" height="40" viewBox="0 0 40 40" fill="none" xmlns="http://www.w3.org/2000/svg">
<circle cx="20" cy="20" r="20" fill="#A0282D"/>
<g clip-path="url(#clip0_57_32)">
<path d="M24.6699 12.1668C24.6699 11.0106 25.597 10.0835 26.7532 10.0835C27.9095 10.0835 28.8365 11.0106 28.8365 12.1668C28.8365 13.3231 27.9095 14.2502 26.7532 14.2502C25.597 14.2502 24.6699 13.3231 24.6699 12.1668ZM28.8365 30.9168V24.6668H31.4407L28.7949 16.7189C28.5091 15.8682 27.7131 15.2942 26.8157 15.2918H26.6907C25.7923 15.291 24.9945 15.8662 24.7115 16.7189L23.8157 19.4064C24.9407 20.0314 25.7115 21.2085 25.7115 22.5835V30.9168H28.8365ZM21.024 19.9793C21.8886 19.9793 22.5865 19.2814 22.5865 18.4168C22.5865 17.5522 21.8886 16.8543 21.024 16.8543C20.1595 16.8543 19.4615 17.5522 19.4615 18.4168C19.4615 19.2814 20.1595 19.9793 21.024 19.9793ZM13.7324 14.2502C14.8886 14.2502 15.8157 13.3231 15.8157 12.1668C15.8157 11.0106 14.8886 10.0835 13.7324 10.0835C12.5761 10.0835 11.649 11.0106 11.649 12.1668C11.649 13.3231 12.5761 14.2502 13.7324 14.2502ZM15.8157 30.9168V23.6252H17.3782V17.3752C17.3782 16.2293 16.4407 15.2918 15.2949 15.2918H12.1699C11.024 15.2918 10.0865 16.2293 10.0865 17.3752V23.6252H11.649V30.9168H15.8157ZM22.5865 30.9168V26.7502H23.6282V22.5835C23.6282 21.7293 22.9199 21.021 22.0657 21.021H19.9824C19.1282 21.021 18.4199 21.7293 18.4199 22.5835V26.7502H19.4615V30.9168H22.5865Z" fill="white"/>
</g>
<defs>
<clipPath id="clip0_57_32">
<rect width="25" height="25" fill="white" transform="translate(8 8)"/>
</clipPath>
</defs>
</svg>
