<svg width="40" height="40" viewBox="0 0 40 40" fill="none" xmlns="http://www.w3.org/2000/svg">
<circle cx="20" cy="20" r="20" fill="#375A7D"/>
<g clip-path="url(#clip0_57_22)">
<path d="M31.5926 19.9805C30.5567 15.297 28.9976 12.7972 26.6849 12.1144C26.1988 11.9718 25.6945 11.9005 25.1879 11.9029C24.5182 11.9029 23.9351 12.066 23.3182 12.2389C22.5748 12.4475 21.7303 12.6844 20.499 12.6844C19.2677 12.6844 18.4227 12.448 17.6778 12.2394C17.0605 12.066 16.4778 11.9029 15.8101 11.9029C15.2862 11.9011 14.7646 11.9721 14.2603 12.1139C11.9598 12.7938 10.4018 15.2926 9.35066 19.9775C8.22044 25.0191 8.77676 28.2022 10.9107 28.9407C11.2032 29.0438 11.511 29.0969 11.8211 29.0979C13.283 29.0979 14.4552 27.8803 15.2562 26.8834C16.1613 25.7551 17.2207 25.1827 20.499 25.1827C23.4271 25.1827 24.6389 25.5798 25.6856 26.8834C26.3435 27.703 26.9653 28.2764 27.5856 28.6373C28.4105 29.117 29.235 29.2234 30.0355 28.9485C31.2966 28.5182 32.0195 27.3806 32.1846 25.5666C32.3101 24.1756 32.1167 22.3484 31.5926 19.9805ZM18.1545 19.7177H16.5916V21.2807C16.5916 21.7123 16.2417 22.0621 15.8101 22.0621C15.3785 22.0621 15.0286 21.7123 15.0286 21.2807V19.7177H13.4657C13.0341 19.7177 12.6842 19.3678 12.6842 18.9362C12.6842 18.5046 13.0341 18.1547 13.4657 18.1547H15.0286V16.5918C15.0286 16.1602 15.3785 15.8103 15.8101 15.8103C16.2417 15.8103 16.5916 16.1602 16.5916 16.5918V18.1547H18.1545C18.5861 18.1547 18.936 18.5046 18.936 18.9362C18.936 19.3678 18.5861 19.7177 18.1545 19.7177ZM22.2573 19.9131C21.7178 19.9131 21.2805 19.4757 21.2805 18.9362C21.2805 18.3967 21.7178 17.9594 22.2573 17.9594C22.7968 17.9594 23.2342 18.3967 23.2342 18.9362C23.2342 19.4757 22.7968 19.9131 22.2573 19.9131ZM24.4064 22.0621C24.0111 22.0621 23.6547 21.8239 23.5037 21.4586C23.3526 21.0932 23.4366 20.6729 23.7165 20.3937C23.9964 20.1145 24.417 20.0315 24.7819 20.1835C25.1469 20.3355 25.3842 20.6924 25.3832 21.0877C25.3819 21.6263 24.9449 22.0621 24.4064 22.0621ZM24.4064 17.764C23.8669 17.764 23.4295 17.3266 23.4295 16.7871C23.4295 16.2476 23.8669 15.8103 24.4064 15.8103C24.9459 15.8103 25.3832 16.2476 25.3832 16.7871C25.3832 17.3266 24.9459 17.764 24.4064 17.764ZM26.5555 19.9131C26.016 19.9131 25.5786 19.4757 25.5786 18.9362C25.5786 18.3967 26.016 17.9594 26.5555 17.9594C27.095 17.9594 27.5323 18.3967 27.5323 18.9362C27.5323 19.4757 27.095 19.9131 26.5555 19.9131Z" fill="white"/>
</g>
<defs>
<clipPath id="clip0_57_22">
<rect width="25" height="25" fill="white" transform="translate(8 8)"/>
</clipPath>
</defs>
</svg>
