<svg width="40" height="40" viewBox="0 0 40 40" fill="none" xmlns="http://www.w3.org/2000/svg">
<circle cx="20" cy="20" r="20" fill="#C81E23"/>
<g clip-path="url(#clip0_57_41)">
<path d="M11.2474 27.5024C11.2474 28.194 11.8062 28.7527 12.4978 28.7527H18.7497V22.5009H11.2474V27.5024ZM21.2504 28.7527H27.5023C28.1939 28.7527 28.7526 28.194 28.7526 27.5024V22.5009H21.2504V28.7527ZM28.7526 16.249H27.1076C27.3499 15.7762 27.5023 15.2527 27.5023 14.6861C27.5023 12.791 25.9588 11.2476 24.0637 11.2476C22.4383 11.2476 21.3872 12.0798 20.0391 13.9163C18.6911 12.0798 17.64 11.2476 16.0145 11.2476C14.1194 11.2476 12.576 12.791 12.576 14.6861C12.576 15.2527 12.7244 15.7762 12.9706 16.249H11.2474C10.5558 16.249 9.99707 16.8078 9.99707 17.4994V20.6253C9.99707 20.9692 10.2784 21.2505 10.6223 21.2505H29.3778C29.7217 21.2505 30.003 20.9692 30.003 20.6253V17.4994C30.003 16.8078 29.4442 16.249 28.7526 16.249ZM16.0106 16.249C15.147 16.249 14.4476 15.5496 14.4476 14.6861C14.4476 13.8225 15.147 13.1231 16.0106 13.1231C16.7881 13.1231 17.3625 13.2521 19.3748 16.249H16.0106ZM24.0637 16.249H20.6995C22.7079 13.2599 23.2666 13.1231 24.0637 13.1231C24.9273 13.1231 25.6267 13.8225 25.6267 14.6861C25.6267 15.5496 24.9273 16.249 24.0637 16.249Z" fill="white"/>
</g>
<defs>
<clipPath id="clip0_57_41">
<rect width="20" height="20" fill="white" transform="translate(10 10)"/>
</clipPath>
</defs>
</svg>
