<svg width="40" height="40" viewBox="0 0 40 40" fill="none" xmlns="http://www.w3.org/2000/svg">
<circle cx="20" cy="20" r="20" fill="#FFD264"/>
<g clip-path="url(#clip0_57_39)">
<path d="M11.737 12.9887C11.737 12.2962 12.2964 11.7368 12.9889 11.7368H14.2407C14.9331 11.7368 15.4926 12.2962 15.4926 12.9887V19.2479V21.7516V28.0109C15.4926 28.7033 14.9331 29.2627 14.2407 29.2627H12.9889C12.2964 29.2627 11.737 28.7033 11.737 28.0109V25.5072H10.4851C9.79272 25.5072 9.2333 24.9478 9.2333 24.2553V21.7516C8.54087 21.7516 7.98145 21.1922 7.98145 20.4998C7.98145 19.8073 8.54087 19.2479 9.2333 19.2479V16.7442C9.2333 16.0518 9.79272 15.4924 10.4851 15.4924H11.737V12.9887ZM29.2629 12.9887V15.4924H30.5148C31.2072 15.4924 31.7666 16.0518 31.7666 16.7442V19.2479C32.4591 19.2479 33.0185 19.8073 33.0185 20.4998C33.0185 21.1922 32.4591 21.7516 31.7666 21.7516V24.2553C31.7666 24.9478 31.2072 25.5072 30.5148 25.5072H29.2629V28.0109C29.2629 28.7033 28.7035 29.2627 28.0111 29.2627H26.7592C26.0668 29.2627 25.5074 28.7033 25.5074 28.0109V21.7516V19.2479V12.9887C25.5074 12.2962 26.0668 11.7368 26.7592 11.7368H28.0111C28.7035 11.7368 29.2629 12.2962 29.2629 12.9887ZM24.2555 19.2479V21.7516H16.7444V19.2479H24.2555Z" fill="white"/>
</g>
<defs>
<clipPath id="clip0_57_39">
<rect width="25" height="25" fill="white" transform="translate(8 8)"/>
</clipPath>
</defs>
</svg>
