<svg width="40" height="40" viewBox="0 0 40 40" fill="none" xmlns="http://www.w3.org/2000/svg">
<circle cx="20" cy="20" r="20" fill="#9BBE87"/>
<g clip-path="url(#clip0_57_23)">
<path d="M20.5 7.98535C13.5866 7.98535 7.98523 13.5867 7.98523 20.5002C7.98523 27.4136 13.5866 33.015 20.5 33.015C27.4135 33.015 33.0149 27.4136 33.0149 20.5002C33.0149 13.5867 27.4135 7.98535 20.5 7.98535ZM13.6371 18.8551C13.8036 16.7306 15.262 15.252 16.463 15.252C17.664 15.252 19.1224 16.7306 19.2889 18.8551C19.3243 19.2891 18.7439 19.4556 18.537 19.0822L18.0576 18.2243C17.6691 17.5329 17.0887 17.1343 16.4681 17.1343C15.8474 17.1343 15.267 17.5329 14.8785 18.2243L14.3991 19.0822C14.1821 19.4556 13.6018 19.284 13.6371 18.8551ZM26.2932 25.0519C24.855 26.7778 22.7456 27.7668 20.5 27.7668C18.2544 27.7668 16.1451 26.7778 14.7069 25.0519C14.0256 24.2294 15.262 23.1999 15.9483 24.0174C17.0787 25.3749 18.7338 26.147 20.5 26.147C22.2662 26.147 23.9214 25.3698 25.0518 24.0174C25.7381 23.1999 26.9744 24.2344 26.2932 25.0519ZM26.6061 19.0822L26.1267 18.2243C25.7381 17.5329 25.1578 17.1343 24.5371 17.1343C23.9164 17.1343 23.3361 17.5329 22.9475 18.2243L22.4681 19.0822C22.2612 19.4505 21.6809 19.284 21.7162 18.8551C21.8827 16.7306 23.3411 15.252 24.5421 15.252C25.7431 15.252 27.2015 16.7306 27.3681 18.8551C27.3983 19.2891 26.813 19.4556 26.6061 19.0822Z" fill="white"/>
</g>
<defs>
<clipPath id="clip0_57_23">
<rect width="25" height="25" fill="white" transform="translate(8 8)"/>
</clipPath>
</defs>
</svg>
