<svg width="40" height="40" viewBox="0 0 40 40" fill="none" xmlns="http://www.w3.org/2000/svg">
<circle cx="20" cy="20" r="20" fill="#FF5A5F"/>
<g clip-path="url(#clip0_57_40)">
<path d="M20.1675 15.8102L12.144 22.4185V29.5508C12.144 29.9353 12.4557 30.247 12.8403 30.247L17.717 30.2344C18.1002 30.2325 18.4098 29.9213 18.4098 29.5381V25.373C18.4098 24.9884 18.7215 24.6767 19.1061 24.6767H21.8913C22.2758 24.6767 22.5876 24.9884 22.5876 25.373V29.5351C22.587 29.7201 22.6601 29.8978 22.7908 30.0289C22.9214 30.1599 23.0988 30.2336 23.2839 30.2336L28.1588 30.247C28.5434 30.247 28.8551 29.9353 28.8551 29.5508V22.4137L20.8334 15.8102C20.639 15.6536 20.3618 15.6536 20.1675 15.8102ZM32.8414 20.3018L29.2033 17.3029V11.2752C29.2033 10.9867 28.9695 10.7529 28.681 10.7529H26.244C25.9556 10.7529 25.7218 10.9867 25.7218 11.2752V14.435L21.8256 11.2295C21.0545 10.5949 19.9421 10.5949 19.1709 11.2295L8.1551 20.3018C8.0483 20.39 7.98096 20.5171 7.9679 20.6551C7.95484 20.793 7.99714 20.9305 8.08547 21.0372L9.19519 22.3863C9.28329 22.4934 9.41038 22.5611 9.54843 22.5744C9.68648 22.5877 9.82416 22.5456 9.93109 22.4572L20.1675 14.026C20.3618 13.8693 20.639 13.8693 20.8334 14.026L31.0702 22.4572C31.177 22.5456 31.3144 22.5879 31.4524 22.5748C31.5903 22.5617 31.7174 22.4944 31.8057 22.3876L32.9154 21.0385C33.0036 20.9312 33.0454 20.793 33.0316 20.6548C33.0177 20.5165 32.9492 20.3894 32.8414 20.3018Z" fill="white"/>
</g>
<defs>
<clipPath id="clip0_57_40">
<rect width="25" height="25" fill="white" transform="translate(8 8)"/>
</clipPath>
</defs>
</svg>
