<svg width="40" height="40" viewBox="0 0 40 40" fill="none" xmlns="http://www.w3.org/2000/svg">
<circle cx="20" cy="20" r="20" fill="#46AFAA"/>
<g clip-path="url(#clip0_57_28)">
<path d="M30.9219 22.4672L32.9736 13.4395C33.1218 12.7876 32.6263 12.1669 31.9579 12.1669H14.9101L14.5122 10.2221C14.4131 9.73729 13.9865 9.38916 13.4917 9.38916H9.04167C8.46636 9.38916 8 9.85552 8 10.4308V11.1253C8 11.7006 8.46636 12.1669 9.04167 12.1669H12.0748L15.1237 27.073C14.3943 27.4925 13.9028 28.279 13.9028 29.1808C13.9028 30.5232 14.991 31.6114 16.3333 31.6114C17.6757 31.6114 18.7639 30.5232 18.7639 29.1808C18.7639 28.5005 18.4841 27.8859 18.0337 27.4447H27.1329C26.6826 27.8859 26.4028 28.5005 26.4028 29.1808C26.4028 30.5232 27.491 31.6114 28.8333 31.6114C30.1757 31.6114 31.2639 30.5232 31.2639 29.1808C31.2639 28.2185 30.7045 27.3869 29.8933 26.9931L30.1327 25.9395C30.2809 25.2876 29.7854 24.6669 29.117 24.6669H17.4669L17.1828 23.278H29.9061C30.3925 23.278 30.8141 22.9415 30.9219 22.4672Z" fill="white"/>
</g>
<defs>
<clipPath id="clip0_57_28">
<rect width="25" height="25" fill="white" transform="translate(8 8)"/>
</clipPath>
</defs>
</svg>
