<svg width="40" height="40" viewBox="0 0 40 40" fill="none" xmlns="http://www.w3.org/2000/svg">
<circle cx="20" cy="20" r="20" fill="#CD5078"/>
<g clip-path="url(#clip0_57_36)">
<path d="M13.2814 25.0937H10.6564C10.2939 25.0937 10.0001 25.3875 10.0001 25.7499V28.3749C10.0001 28.7374 10.2939 29.0312 10.6564 29.0312H13.2814C13.6438 29.0312 13.9376 28.7374 13.9376 28.3749V25.7499C13.9376 25.3875 13.6438 25.0937 13.2814 25.0937ZM13.2814 11.9688H10.6564C10.2939 11.9688 10.0001 12.2626 10.0001 12.625V15.25C10.0001 15.6124 10.2939 15.9062 10.6564 15.9062H13.2814C13.6438 15.9062 13.9376 15.6124 13.9376 15.25V12.625C13.9376 12.2626 13.6438 11.9688 13.2814 11.9688ZM13.2814 18.5312H10.6564C10.2939 18.5312 10.0001 18.825 10.0001 19.1875V21.8125C10.0001 22.1749 10.2939 22.4687 10.6564 22.4687H13.2814C13.6438 22.4687 13.9376 22.1749 13.9376 21.8125V19.1875C13.9376 18.825 13.6438 18.5312 13.2814 18.5312ZM30.3438 25.7499H17.2188C16.8564 25.7499 16.5626 26.0438 16.5626 26.4062V27.7187C16.5626 28.0811 16.8564 28.3749 17.2188 28.3749H30.3438C30.7062 28.3749 31 28.0811 31 27.7187V26.4062C31 26.0438 30.7062 25.7499 30.3438 25.7499ZM30.3438 12.625H17.2188C16.8564 12.625 16.5626 12.9188 16.5626 13.2812V14.5937C16.5626 14.9562 16.8564 15.25 17.2188 15.25H30.3438C30.7062 15.25 31 14.9562 31 14.5937V13.2812C31 12.9188 30.7062 12.625 30.3438 12.625ZM30.3438 19.1875H17.2188C16.8564 19.1875 16.5626 19.4813 16.5626 19.8437V21.1562C16.5626 21.5187 16.8564 21.8125 17.2188 21.8125H30.3438C30.7062 21.8125 31 21.5187 31 21.1562V19.8437C31 19.4813 30.7062 19.1875 30.3438 19.1875Z" fill="white"/>
</g>
<defs>
<clipPath id="clip0_57_36">
<rect width="25" height="25" fill="white" transform="translate(8 8)"/>
</clipPath>
</defs>
</svg>
