<svg width="40" height="40" viewBox="0 0 40 40" fill="none" xmlns="http://www.w3.org/2000/svg">
<circle cx="20" cy="20" r="20" fill="#5069AA"/>
<g clip-path="url(#clip0_57_26)">
<path d="M30 15.7141C28.3212 15.6217 26.6557 16.0581 25.2379 16.9617C24.895 16.5712 24.5426 16.1808 24.1712 15.8093L23.895 15.5522L24.0283 15.4379C24.9823 14.6189 25.3245 13.292 24.8855 12.1139C24.2529 10.7871 22.8975 9.95819 21.4282 9.99952V11.9044C22.1182 11.8948 22.7595 12.2591 23.1045 12.8568C23.2664 13.2378 23.1045 13.6568 22.6568 14.1045L22.4378 14.3045C21.4443 13.4767 20.3537 12.7731 19.19 12.2091C16.7804 11.1234 15.5422 11.6282 14.9327 12.2091C14.7469 12.3953 14.5983 12.6151 14.4946 12.8568L14.3231 13.3616L12.9516 17.4951C14.0374 20.2 16.6661 25.0097 22.3806 27.086L27.1427 25.505C27.3033 25.4452 27.4448 25.3432 27.5523 25.2097L27.7523 25.0383C29.1143 23.6668 28.238 21.0286 26.4094 18.4666C27.4952 17.8329 28.7454 17.5377 30 17.6189V15.7141ZM26.3903 23.6859H26.3332C25.676 24.0383 22.9521 23.143 19.8662 20.0571C19.5424 19.7333 19.2376 19.419 18.9614 19.1047C18.8662 18.9999 18.7805 18.8856 18.6852 18.7713L18.1804 18.1618L17.9138 17.7904C17.7804 17.6094 17.6471 17.4284 17.5328 17.257C17.4185 17.0856 17.3804 17.0094 17.3042 16.8855C17.228 16.7617 17.0947 16.5617 17.009 16.3998C16.9232 16.2379 16.8851 16.1712 16.828 16.0474C16.7708 15.9236 16.6661 15.7807 16.6089 15.6474C16.5518 15.5141 16.5232 15.4283 16.4756 15.3236C16.428 15.2188 16.3708 15.0664 16.3327 14.9426C16.2946 14.8188 16.2851 14.7616 16.2661 14.6664C16.247 14.5712 16.2089 14.4378 16.1899 14.3426C16.1853 14.2665 16.1853 14.1901 16.1899 14.114C16.1805 14.0317 16.1805 13.9486 16.1899 13.8664L16.2946 13.5711C16.4565 13.3997 17.1613 13.3521 18.4185 13.9235C19.2587 14.3271 20.0537 14.8188 20.7901 15.3902C20.3886 15.5674 19.9606 15.6768 19.5234 15.7141V17.6189C20.5352 17.5615 21.5169 17.2539 22.3806 16.7236L22.8473 17.1618C23.2664 17.5713 23.6378 17.9808 23.9807 18.3713C23.4064 19.3506 23.1783 20.4945 23.333 21.6191L25.2379 21.2477C25.1735 20.8886 25.1735 20.5209 25.2379 20.1619C26.4665 22.0382 26.6951 23.3906 26.3903 23.6859ZM12.2849 19.5238L10.161 25.905C9.85008 26.8553 10.0128 27.8971 10.5988 28.7072C11.1848 29.5174 12.1232 29.9982 13.1231 30.0004C13.4471 29.9973 13.7686 29.9426 14.0755 29.8385L20.2853 27.7718C16.7805 25.9818 13.9672 23.0815 12.2849 19.5238Z" fill="white"/>
</g>
<defs>
<clipPath id="clip0_57_26">
<rect width="20" height="20" fill="white" transform="translate(10 10)"/>
</clipPath>
</defs>
</svg>
