<svg width="40" height="40" viewBox="0 0 40 40" fill="none" xmlns="http://www.w3.org/2000/svg">
<circle cx="20" cy="20" r="20" fill="#6EB4F5"/>
<g clip-path="url(#clip0_57_30)">
<path d="M30.9896 30.4695C30.5958 28.7305 28.348 27.8828 27.5714 27.6094C26.7183 27.3086 25.5041 27.2375 24.7221 27.0625C24.2736 26.9641 23.6228 26.718 23.404 26.4555C23.1853 26.193 23.3165 23.7594 23.3165 23.7594C23.3165 23.7594 23.7212 23.1305 23.94 22.5727C24.1588 22.0203 24.3994 20.5 24.3994 20.5C24.3994 20.5 24.8479 20.5 25.0065 19.7125C25.176 18.8539 25.444 18.5203 25.4112 17.8805C25.3784 17.2516 25.0338 17.268 25.0338 17.268C25.0338 17.268 25.3674 16.3547 25.4057 14.4625C25.4549 12.2148 23.6939 10 20.5055 10C17.2733 10 15.5505 12.2148 15.5998 14.4625C15.6435 16.3547 15.9662 17.268 15.9662 17.268C15.9662 17.268 15.6216 17.2516 15.5888 17.8805C15.556 18.5203 15.824 18.8539 15.9935 19.7125C16.1467 20.5 16.6006 20.5 16.6006 20.5C16.6006 20.5 16.8412 22.0203 17.06 22.5727C17.2787 23.1305 17.6835 23.7594 17.6835 23.7594C17.6835 23.7594 17.8147 26.193 17.5959 26.4555C17.3772 26.718 16.7264 26.9641 16.2779 27.0625C15.4958 27.2375 14.2817 27.3086 13.4286 27.6094C12.652 27.8828 10.4042 28.7305 10.0104 30.4695C9.95026 30.743 10.1581 31 10.4425 31H30.563C30.8419 31 31.0497 30.743 30.9896 30.4695Z" fill="white"/>
</g>
<defs>
<clipPath id="clip0_57_30">
<rect width="25" height="25" fill="white" transform="translate(8 8)"/>
</clipPath>
</defs>
</svg>
