<svg width="40" height="40" viewBox="0 0 40 40" fill="none" xmlns="http://www.w3.org/2000/svg">
<circle cx="20" cy="20" r="20" fill="#8CB45F"/>
<g clip-path="url(#clip0_57_34)">
<path d="M12.6562 20.494C14.0944 20.494 15.2603 19.3281 15.2603 17.8898C15.2603 16.4516 14.0944 15.2856 12.6562 15.2856C11.2179 15.2856 10.052 16.4516 10.052 17.8898C10.052 19.3281 11.2179 20.494 12.6562 20.494Z" fill="white"/>
<path d="M17.3625 16.3016C18.8007 16.3016 19.9666 15.1357 19.9666 13.6974C19.9666 12.2592 18.8007 11.0933 17.3625 11.0933C15.9242 11.0933 14.7583 12.2592 14.7583 13.6974C14.7583 15.1357 15.9242 16.3016 17.3625 16.3016Z" fill="white"/>
<path d="M23.6376 16.3016C25.0759 16.3016 26.2418 15.1357 26.2418 13.6974C26.2418 12.2592 25.0759 11.0933 23.6376 11.0933C22.1994 11.0933 21.0334 12.2592 21.0334 13.6974C21.0334 15.1357 22.1994 16.3016 23.6376 16.3016Z" fill="white"/>
<path d="M28.3439 20.494C29.7822 20.494 30.9481 19.3281 30.9481 17.8898C30.9481 16.4516 29.7822 15.2856 28.3439 15.2856C26.9057 15.2856 25.7397 16.4516 25.7397 17.8898C25.7397 19.3281 26.9057 20.494 28.3439 20.494Z" fill="white"/>
<path d="M26.0603 23.4948C25.1541 22.4323 24.3936 21.526 23.477 20.4635C22.9978 19.901 22.3832 19.3385 21.6541 19.0885C21.5395 19.0469 21.4249 19.0156 21.3103 18.9948C21.0499 18.9531 20.7686 18.9531 20.4978 18.9531C20.227 18.9531 19.9457 18.9531 19.6749 19.0052C19.5603 19.026 19.4457 19.0573 19.3311 19.099C18.602 19.349 17.9978 19.9115 17.5082 20.474C16.602 21.5365 15.8416 22.4427 14.9249 23.5052C13.5603 24.8698 11.8832 26.3802 12.1957 28.4948C12.4978 29.5573 13.2582 30.6094 14.6228 30.9115C15.3832 31.0677 17.8103 30.4531 20.3936 30.4531H20.5811C23.1645 30.4531 25.5916 31.0573 26.352 30.9115C27.7166 30.6094 28.477 29.5469 28.7791 28.4948C29.102 26.3698 27.4249 24.8594 26.0603 23.4948Z" fill="white"/>
</g>
<defs>
<clipPath id="clip0_57_34">
<rect width="25" height="25" fill="white" transform="translate(8 8)"/>
</clipPath>
</defs>
</svg>
