<svg width="40" height="40" viewBox="0 0 40 40" fill="none" xmlns="http://www.w3.org/2000/svg">
<circle cx="20" cy="20" r="20" fill="#0A509B"/>
<g clip-path="url(#clip0_57_24)">
<path d="M26.336 13.8352H26.3406H26.336ZM32.1425 12.1695H27.4025L27.8669 10.3132L29.8616 9.63392C30.2858 9.48973 30.5383 9.03894 30.4159 8.60794C30.353 8.38884 30.2031 8.20509 30.001 8.09954C29.799 7.99399 29.5625 7.97587 29.3467 8.0494L26.9002 8.88226C26.6325 8.97355 26.4294 9.19447 26.3609 9.46891L25.6858 12.1695H18.8637C18.4155 12.1695 18.0308 12.514 18.0084 12.9622C17.9974 13.1898 18.0802 13.4119 18.2374 13.5769C18.3945 13.7418 18.6124 13.8351 18.8402 13.8352H18.9834L19.0354 14.286C19.0608 14.5039 19.2455 14.6682 19.4649 14.668C21.495 14.668 23.2991 15.2354 24.6765 16.3088C25.4426 16.899 26.0636 17.6566 26.4921 18.5236C26.732 19.0113 26.909 19.5275 27.0189 20.0597C27.0408 20.1635 27.1022 20.2546 27.1902 20.3138C28.6492 21.3037 29.2209 23.1768 28.5633 24.8128C28.5262 24.9047 28.5234 25.0069 28.5555 25.1006C28.7399 25.6291 28.8342 26.1848 28.8345 26.7445C28.8345 27.9074 28.4389 29.0156 27.7206 29.8651C27.3133 30.35 26.801 30.7357 26.2225 30.9931C26.1224 31.0372 26.0437 31.1189 26.0033 31.2206C25.7871 31.7838 25.4819 32.3086 25.0992 32.7749C25.0666 32.8135 25.0594 32.8675 25.0806 32.9133C25.1018 32.9591 25.1476 32.9886 25.1981 32.9888H27.7596C29.0596 32.9835 30.1404 31.9865 30.2504 30.6912L32.0306 13.8352H32.166C32.394 13.8354 32.6121 13.7422 32.7695 13.5772C32.9269 13.4123 33.0098 13.19 32.9988 12.9622C32.977 12.514 32.5907 12.1695 32.1425 12.1695Z" fill="white"/>
<path d="M12.8267 23.837C13.1585 23.8355 13.4771 23.9667 13.7116 24.2014L14.519 25.0088C14.558 25.0479 14.611 25.0698 14.6663 25.0698C14.7215 25.0698 14.7745 25.0479 14.8136 25.0088L15.6194 24.2014C15.8539 23.9667 16.1725 23.8355 16.5043 23.837H26.737C26.8474 23.8381 26.9538 23.7953 27.0327 23.718C27.1116 23.6407 27.1565 23.5352 27.1576 23.4248V23.4206C27.1564 22.4315 26.4607 21.5793 25.4919 21.3801C25.4492 19.8346 24.8152 18.5411 23.6434 17.6322C22.5597 16.7869 21.1116 16.3413 19.4536 16.3413H15.7058C12.1547 16.3413 9.74927 18.3594 9.66755 21.3801C8.69874 21.5793 8.00304 22.4315 8.00183 23.4206C8.00183 23.6506 8.18827 23.837 8.41826 23.837H12.8267ZM16.8478 25.5028C16.7374 25.5027 16.6314 25.5465 16.5532 25.6246L15.4007 26.7775C14.9942 27.184 14.3352 27.184 13.9287 26.7775L12.7762 25.6246C12.698 25.5465 12.592 25.5027 12.4816 25.5028H8.86905C8.46512 25.501 8.11866 25.7905 8.04868 26.1883C8.01741 26.3746 8.00174 26.5632 8.00183 26.752C8.00183 28.3444 9.10173 29.6415 10.4619 29.667C10.5884 30.4541 10.8945 31.1652 11.3551 31.7216C12.0365 32.5446 13.0271 32.9985 14.1442 32.9985H21.0153C22.1323 32.9985 23.1229 32.5446 23.8043 31.7206C24.265 31.1641 24.571 30.4531 24.6975 29.666C26.0577 29.6415 27.1576 28.3444 27.1576 26.751C27.1577 26.5621 27.142 26.3735 27.1107 26.1873C27.0403 25.7898 26.694 25.5009 26.2904 25.5028H16.8478Z" fill="white"/>
</g>
<defs>
<clipPath id="clip0_57_24">
<rect width="25" height="25" fill="white" transform="translate(8 8)"/>
</clipPath>
</defs>
</svg>
