<svg width="40" height="40" viewBox="0 0 40 40" fill="none" xmlns="http://www.w3.org/2000/svg">
<circle cx="20" cy="20" r="20" fill="#D7B428"/>
<g clip-path="url(#clip0_57_35)">
<path d="M33.0333 18.7595V19.4558C33.0333 20.0326 32.5657 20.5002 31.9889 20.5002H31.6408L30.5044 28.4549C30.3573 29.484 29.476 30.2484 28.4365 30.2484H12.5635C11.524 30.2484 10.6427 29.484 10.4956 28.4549L9.35927 20.5002H9.01112C8.43428 20.5002 7.96667 20.0326 7.96667 19.4558V18.7595C7.96667 18.1826 8.43428 17.715 9.01112 17.715H11.9417L16.5886 11.3256C17.041 10.7036 17.9119 10.5661 18.5339 11.0185C19.1559 11.4708 19.2935 12.3418 18.8411 12.9638L15.3856 17.715H25.6144L22.1589 12.9637C21.7066 12.3418 21.8441 11.4708 22.4661 11.0184C23.0881 10.566 23.9591 10.7036 24.4115 11.3256L29.0583 17.715H31.9889C32.5657 17.715 33.0333 18.1826 33.0333 18.7595ZM21.5445 26.4187V21.5447C21.5445 20.9678 21.0768 20.5002 20.5 20.5002C19.9232 20.5002 19.4556 20.9678 19.4556 21.5447V26.4187C19.4556 26.9956 19.9232 27.4632 20.5 27.4632C21.0768 27.4632 21.5445 26.9956 21.5445 26.4187ZM26.4185 26.4187V21.5447C26.4185 20.9678 25.9509 20.5002 25.3741 20.5002C24.7972 20.5002 24.3296 20.9678 24.3296 21.5447V26.4187C24.3296 26.9956 24.7972 27.4632 25.3741 27.4632C25.9509 27.4632 26.4185 26.9956 26.4185 26.4187ZM16.6704 26.4187V21.5447C16.6704 20.9678 16.2028 20.5002 15.6259 20.5002C15.0491 20.5002 14.5815 20.9678 14.5815 21.5447V26.4187C14.5815 26.9956 15.0491 27.4632 15.6259 27.4632C16.2028 27.4632 16.6704 26.9956 16.6704 26.4187Z" fill="white"/>
</g>
<defs>
<clipPath id="clip0_57_35">
<rect width="25" height="25" fill="white" transform="translate(8 8)"/>
</clipPath>
</defs>
</svg>
