<svg width="40" height="40" viewBox="0 0 40 40" fill="none" xmlns="http://www.w3.org/2000/svg">
<circle cx="20" cy="20" r="20" fill="#F578B9"/>
<g clip-path="url(#clip0_57_33)">
<path fill-rule="evenodd" clip-rule="evenodd" d="M13.7143 9.64307C12.2152 9.64307 11 10.8583 11 12.3574V31.3574L15.75 28.6431L20.5 31.3574L25.25 28.6431L30 31.3574V12.3574C30 10.8583 28.7848 9.64307 27.2857 9.64307H13.7143ZM17.1071 13.7145C15.9828 13.7145 15.0714 14.6259 15.0714 15.7502C15.0714 16.8745 15.9828 17.7859 17.1071 17.7859C18.2314 17.7859 19.1429 16.8745 19.1429 15.7502C19.1429 14.6259 18.2314 13.7145 17.1071 13.7145ZM25.5309 14.1121C25.001 13.5823 24.1419 13.5823 23.6119 14.1121L15.4691 22.255C15.1163 22.5957 14.9748 23.1003 15.099 23.5748C15.2232 24.0493 15.5937 24.4199 16.0682 24.5441C16.5427 24.6683 17.0473 24.5268 17.3881 24.174L25.5309 16.0311C26.0607 15.5012 26.0607 14.6421 25.5309 14.1121ZM23.8929 20.5002C22.7686 20.5002 21.8571 21.4116 21.8571 22.5359C21.8571 23.6602 22.7686 24.5716 23.8929 24.5716C25.0172 24.5716 25.9286 23.6602 25.9286 22.5359C25.9286 21.4116 25.0172 20.5002 23.8929 20.5002Z" fill="white"/>
</g>
<defs>
<clipPath id="clip0_57_33">
<rect width="25" height="25" fill="white" transform="translate(8 8)"/>
</clipPath>
</defs>
</svg>
