<svg width="40" height="40" viewBox="0 0 40 40" fill="none" xmlns="http://www.w3.org/2000/svg">
<circle cx="20" cy="20" r="20" fill="#233C4B"/>
<g clip-path="url(#clip0_57_37)">
<path d="M30.922 14.75H30.5626V12.5938C30.5626 10.5813 26.1063 9 20.5 9C14.8938 9 10.4375 10.5813 10.4375 12.5938V14.75H10.0781C9.48291 14.75 9 15.2325 9 15.8281V19.4219C9 20.0171 9.48291 20.5 10.0781 20.5H10.4375V27.6876C10.4375 28.4813 11.0812 29.1251 11.875 29.1251V30.5626C11.875 31.3563 12.5187 32.0001 13.3125 32.0001H14.75C15.5438 32.0001 16.1875 31.3563 16.1875 30.5626V29.1251H24.8126V30.5626C24.8126 31.3563 25.4563 32.0001 26.2501 32.0001H27.6876C28.4813 32.0001 29.1251 31.3563 29.1251 30.5626V29.1251H29.4126C30.1313 29.1251 30.5626 28.5501 30.5626 27.9751V20.5H30.922C31.5172 20.5 32.0001 20.0171 32.0001 19.4219V15.8281C32.0001 15.2325 31.5172 14.75 30.922 14.75ZM14.0313 26.9688C13.2375 26.9688 12.5938 26.3251 12.5938 25.5313C12.5938 24.7375 13.2375 24.0938 14.0313 24.0938C14.825 24.0938 15.4688 24.7375 15.4688 25.5313C15.4688 26.3251 14.825 26.9688 14.0313 26.9688ZM14.75 21.9375C13.9562 21.9375 13.3125 21.2938 13.3125 20.5V14.75C13.3125 13.9562 13.9562 13.3125 14.75 13.3125H26.2501C27.0438 13.3125 27.6876 13.9562 27.6876 14.75V20.5C27.6876 21.2938 27.0438 21.9375 26.2501 21.9375H14.75ZM26.9688 26.9688C26.175 26.9688 25.5313 26.3251 25.5313 25.5313C25.5313 24.7375 26.175 24.0938 26.9688 24.0938C27.7626 24.0938 28.4063 24.7375 28.4063 25.5313C28.4063 26.3251 27.7626 26.9688 26.9688 26.9688Z" fill="white"/>
</g>
<defs>
<clipPath id="clip0_57_37">
<rect width="25" height="25" fill="white" transform="translate(8 8)"/>
</clipPath>
</defs>
</svg>
